<?xml version="1.0" encoding="UTF-8" standalone="no"?>
<!DOCTYPE svg  PUBLIC '-//W3C//DTD SVG 1.1//EN'  'http://www.w3.org/Graphics/SVG/1.1/DTD/svg11.dtd'>
<svg xmlns="http://www.w3.org/2000/svg">
<defs>
<font id="EurostileLTStd-BoldOblique" horiz-adv-x="720">
<font-face slope="-12" underline-position="-50" font-weight="700" descent="-200" panose-1="2 11 8 4 2 2 2 5 2 4" units-per-em="1000" unicode-range="U+0020-25CA" bbox="-173 -285 1324 986" x-height="525" underline-thickness="50" font-family="Eurostile LT Std Bold" ascent="800" font-style="oblique" cap-height="750"/>
<missing-glyph horiz-adv-x="1000"/>
<glyph glyph-name=".notdef" horiz-adv-x="1000"/>
<glyph glyph-name=".null" horiz-adv-x="0"/>
<glyph glyph-name="nonmarkingreturn" horiz-adv-x="333"/>
<glyph glyph-name="space" horiz-adv-x="360" unicode=" "/>
<glyph glyph-name="exclam" horiz-adv-x="349" unicode="!" d="M427 750l-103 -455h-172l89 455h186zM293 174l-37 -174h-162l37 174h162z"/>
<glyph glyph-name="quotedbl" horiz-adv-x="442" unicode='&quot;' d="M422 750h138l-27 -130l-70 -129h-54l-14 129zM200 750h138l-27 -130l-70 -129h-54l-14 129z"/>
<glyph glyph-name="numbersign" d="M418 425l-51 -130h102l53 130h-104zM441 750h106l-83 -210h101l83 210h105l-83 -210h80l-25 -115h-98l-51 -130h94l-25 -115h-118l-71 -180h-106l71 180h-101l-71 -180h-106l71 180h-91l25 115h113l51 130h-96l25 115h117z" unicode="#"/>
<glyph glyph-name="dollar" d="M407 462l95 -9q39 -3 55.5 -4.5t47.5 -5.5t45 -8t35.5 -11.5t31 -17.5t20.5 -24t15 -32.5t4 -41.5q0 -32 -9 -74q-29 -136 -106 -188t-236 -52l-20 -92h-97l20 92q-126 0 -185 32t-59 125q0 41 12 96h180q-6 -29 -6 -46q0 -33 20 -42t71 -9h97q28 0 40.5 0.5t30.5 4.5 t26.5 12t16.5 22.5t13 37.5q4 20 4 27q0 24 -20.5 33t-78.5 14l-96 7q-138 9 -189.5 37.5t-51.5 93.5q0 29 12 87q29 140 96.5 185t228.5 45l17 82h97l-17 -82q48 -3 75 -6t60.5 -12t50.5 -24t29 -41.5t12 -63.5t-10 -83h-175q4 16 4 32q0 27 -17.5 34.5t-61.5 7.5h-97 q-53 0 -77.5 -13.5t-34.5 -60.5q-3 -15 -3 -25q0 -22 18 -29.5t67 -9.5z" unicode="$"/>
<glyph glyph-name="percent" horiz-adv-x="907" unicode="%" d="M901 750l-602 -750h-120l602 750h120zM360 526l17 83q5 23 5 33q0 18 -12 22.5t-46 4.5q-39 0 -51 -9t-21 -51l-17 -83q-6 -26 -6 -39q0 -17 10 -21t41 -4q41 0 55.5 10t24.5 54zM480 621l-23 -110q-20 -86 -60.5 -111t-133.5 -25q-77 0 -107.5 15t-30.5 65q0 22 6 55 l24 110q20 86 58 111t130 25q79 0 111 -15.5t32 -65.5q0 -23 -6 -54zM815 145l17 83q5 23 5 33q0 18 -12 22.5t-46 4.5q-39 0 -51 -9t-21 -51l-17 -83q-6 -25 -6 -39q0 -17 10 -21t41 -4q41 0 55.5 10t24.5 54zM935 240l-23 -110q-20 -86 -60.5 -111t-133.5 -25 q-78 0 -108 15t-30 65q0 22 6 55l24 110q20 86 58 111t130 25q79 0 111 -15.5t32 -65.5q0 -22 -6 -54z"/>
<glyph glyph-name="ampersand" horiz-adv-x="774" unicode="&amp;" d="M671 0l-56 62q-30 -32 -74.5 -48t-75 -18t-86.5 -2t-94 2.5t-77.5 12t-62 26.5t-37 46.5t-14.5 71.5q0 34 9 79q9 40 20.5 71t31.5 61t51 46.5t72 17.5q-36 39 -36 78q0 19 6 49q26 122 92 161.5t201 39.5q118 0 172 -25t54 -103q0 -34 -10 -77l-8 -38h-172q9 37 9 56 q0 16 -5 22q-12 16 -72 16q-39 0 -55.5 -13t-24.5 -53q-2 -14 -2 -19q0 -26 26 -55l149 -164l21 99h159l-31 -147q-7 -36 -35 -73l67 -75zM519 169l-163 172q-23 -2 -37 -18.5t-18 -30t-9 -40.5t-5 -40q0 -17 6 -28.5t14 -17.5t25.5 -9t31 -3.5t39.5 -0.5h10q69 0 106 16z "/>
<glyph glyph-name="quotesingle" horiz-adv-x="220" unicode="&apos;" d="M200 750h138l-27 -130l-70 -129h-54l-14 129z"/>
<glyph glyph-name="parenleft" horiz-adv-x="385" unicode="(" d="M93 168l56 264q32 145 56 194q41 86 134 113q59 17 150 17l-35 -164q-52 0 -73 -28.5t-35 -98.5l-69 -324q-10 -48 -10 -68q0 -59 64 -59l-35 -164q-130 0 -180 31.5t-50 107.5q0 54 27 179z"/>
<glyph glyph-name="parenright" horiz-adv-x="385" unicode=")" d="M420 432l-56 -264q-13 -58 -21.5 -91.5t-22 -72.5t-29 -59.5t-39.5 -42t-55.5 -31t-73.5 -15.5t-98 -6l35 164q23 0 40.5 8t28 17.5t19 29.5t11.5 33.5t9 38.5l69 324q10 48 10 72q0 28 -14.5 41.5t-49.5 13.5l35 164q130 0 179.5 -34.5t49.5 -109.5q0 -41 -27 -180z"/>
<glyph glyph-name="asterisk" d="M685 564l-133 -39l52 -107l-85 -56l-54 112l-108 -111l-64 55l101 108l-117 46l50 88l117 -45l28 135h93l-28 -135l139 45z" unicode="*"/>
<glyph glyph-name="plus" horiz-adv-x="600" unicode="+" d="M313 334l41 191h115l-41 -191h193l-24 -115h-193l-43 -199h-115l43 199h-192l24 115h192z"/>
<glyph glyph-name="comma" horiz-adv-x="360" unicode="," d="M131 168h162l-36 -168q-15 -78 -57 -110t-140 -32h-5l16 75q42 1 60 15t26 52h-62z"/>
<glyph glyph-name="hyphen" horiz-adv-x="272" unicode="-" d="M76 358h272l-35 -164h-272z"/>
<glyph glyph-name="period" horiz-adv-x="360" unicode="." d="M289 174l-37 -174h-162l37 174h162z"/>
<glyph glyph-name="slash" horiz-adv-x="637" unicode="/" d="M767 750l-624 -863h-137l624 863h137z"/>
<glyph glyph-name="zero" d="M486 591q-36 0 -52 -1.5t-35 -7.5t-28 -20.5t-18 -38t-17 -62.5l-37 -172q-10 -46 -10 -75q0 -38 21 -46.5t84 -8.5q36 0 52 1.5t34.5 7.5t27.5 20.5t18 38t17 62.5l37 172q11 52 11 76q0 37 -21 45.5t-84 8.5zM521 756q41 0 67.5 -1.5t61.5 -6.5t56.5 -16t42 -29 t30 -47.5t9.5 -69.5q0 -44 -11 -93l-50 -236q-13 -61 -34 -107t-51 -74t-59 -45.5t-71.5 -25t-73.5 -9.5t-79 -2q-41 0 -67.5 1.5t-61.5 6.5t-56.5 16t-42 29t-30 47.5t-9.5 69.5q0 44 11 93l50 236q13 61 34 107t51 74t59 45.5t71.5 25t73.5 9.5t79 2z" unicode="0"/>
<glyph glyph-name="one" d="M717 750l-159 -750h-200l122 573l-232 -177l-86 128l321 226h234z" unicode="1"/>
<glyph glyph-name="two" d="M687 156l-33 -156h-592l33 156q10 46 19.5 76t27 56t37 41.5t55.5 31t75.5 26.5t104.5 25q103 23 122 34q23 13 33 53q2 7 4 18q5 25 5 37q0 28 -18.5 37t-63.5 9h-10q-70 0 -91 -14t-34 -73l-8 -37h-190l8 37q16 75 45 123.5t74.5 74.5t98.5 35.5t130 9.5q50 0 85 -3 t69 -12.5t55 -26t33.5 -45t12.5 -68.5q0 -29 -10 -81q-14 -64 -31.5 -103t-50 -65.5t-70.5 -41.5t-106 -33q-32 -8 -70 -16t-55 -11.5t-37 -10.5t-28.5 -16.5t-16.5 -25.5t-14 -41h402z" unicode="2"/>
<glyph glyph-name="three" d="M377 311l31 145h48q71 0 90 10.5t28 50.5q6 25 6 42q0 23 -19.5 32t-73.5 9q-33 0 -48.5 -1.5t-33.5 -9.5t-27 -26t-16 -50l-3 -15h-190l5 26q11 53 28 91.5t42.5 64t52 41t66 23t76 10t90.5 2.5q40 0 68 -2t65 -10t60 -23t39.5 -43t16.5 -68q0 -24 -6 -56 q-33 -154 -151 -169l-2 -8q97 -4 97 -101q0 -23 -7 -60q-12 -57 -35.5 -97.5t-53 -64.5t-72.5 -37.5t-84 -18t-97 -4.5q-52 0 -87 2.5t-73.5 11t-61 25t-37.5 45.5t-15 71q0 32 9 74l9 40h190l-5 -25q-4 -17 -4 -33q0 -36 23.5 -45.5t75.5 -9.5q68 0 94 15t39 76q4 22 4 29 q0 23 -21.5 32t-81.5 9h-48z" unicode="3"/>
<glyph glyph-name="four" d="M490 293l65 303h-7l-293 -303h235zM777 750l-97 -457h64l-31 -145h-64l-31 -148h-190l31 148h-392l46 214l369 388h295z" unicode="4"/>
<glyph glyph-name="five" d="M111 218h190q-1 -7 -1 -18q0 -32 19.5 -41t63.5 -9q31 0 46 1t32.5 6t26 15.5t16.5 29t14 47.5q11 55 11 69q0 28 -21 38t-79 10q-53 0 -72 -5.5t-32 -30.5h-172l89 420h542l-30 -145h-370l-31 -144q44 38 73 46.5t104 8.5q105 0 150 -33.5t45 -109.5q0 -40 -13 -103 q-19 -89 -46 -143.5t-73.5 -84t-100.5 -39t-142 -9.5q-128 0 -187 32t-59 122q0 34 7 70z" unicode="5"/>
<glyph glyph-name="six" d="M771 521h-190q4 17 4 34q0 30 -19.5 37.5t-71.5 7.5q-74 0 -99.5 -16.5t-41.5 -87.5l-25 -119h2q20 37 45.5 54.5t46 20.5t61.5 3q124 0 178 -25t54 -107q0 -37 -10 -83q-16 -77 -43.5 -126.5t-72 -75.5t-95.5 -35t-129 -9q-147 0 -205 32.5t-58 125.5q0 59 19 145 l40 188q15 70 37 117.5t50 78t71 47t90.5 22.5t117.5 6q50 0 80.5 -1.5t68 -9t58.5 -22t36 -41.5t15 -66q0 -29 -7 -63zM407 299q-58 0 -79.5 -11.5t-30.5 -54.5q-6 -25 -6 -42q0 -24 18 -32.5t66 -8.5q82 0 104 13.5t35 73.5q3 13 3 24q0 26 -21 32t-81 6h-8z" unicode="6"/>
<glyph glyph-name="seven" d="M783 750l-35 -168l-373 -582h-210l378 582h-361l35 168h566z" unicode="7"/>
<glyph glyph-name="eight" d="M456 454q66 0 88 13.5t33 64.5q4 16 4 31q0 21 -19 29t-74 8q-63 0 -85 -13t-32 -62q-4 -22 -4 -28q0 -27 20 -35t69 -8zM359 -6q-48 0 -82.5 2.5t-72 11.5t-60 24.5t-37.5 44t-15 68.5q0 30 7 62q15 70 60 120t113 53l1 7q-49 13 -71 39.5t-22 70.5q0 24 8 61 q11 53 36 90.5t54.5 58t73.5 32t80.5 14.5t88.5 3q49 0 82 -2t69 -10.5t57.5 -23t35.5 -41.5t14 -65q0 -27 -8 -65q-16 -76 -46 -108t-103 -54l-1 -7q95 -13 95 -110q0 -32 -7 -63q-10 -48 -28 -84.5t-44.5 -59t-54.5 -37t-67.5 -21.5t-73.5 -9t-82 -2zM424 309 q-71 0 -95 -14t-35 -66q-4 -22 -4 -30q0 -29 22.5 -39t77.5 -10q80 0 101.5 14.5t32.5 67.5q5 27 5 38q0 25 -20.5 32t-84.5 7z" unicode="8"/>
<glyph glyph-name="nine" d="M106 229h190q-4 -17 -4 -34q0 -30 19.5 -37.5t71.5 -7.5q74 0 99.5 16.5t40.5 87.5l25 119h-2q-15 -28 -31 -44.5t-37.5 -23.5t-37 -8.5t-46.5 -1.5q-49 0 -81.5 2.5t-63.5 10t-49 22t-28.5 39t-10.5 59.5q0 36 10 82q17 77 44.5 126.5t72 75.5t95.5 35t129 9 q147 0 205 -32t58 -125q0 -55 -20 -146l-40 -188q-15 -70 -36.5 -117.5t-50 -78t-71 -47t-90 -22.5t-117.5 -6q-50 0 -80.5 1.5t-68.5 9t-59 22t-36 41t-15 65.5q0 26 8 64zM470 451q58 0 79.5 11.5t30.5 54.5q6 25 6 42q0 24 -18 32.5t-66 8.5q-82 0 -105 -13.5t-35 -73.5 q-3 -13 -3 -23t2.5 -16.5t9.5 -11t13 -6.5t20.5 -3.5t25 -1.5h32.5h8z" unicode="9"/>
<glyph glyph-name="colon" horiz-adv-x="360" unicode=":" d="M364 525l-37 -174h-162l37 174h162zM289 174l-37 -174h-162l37 174h162z"/>
<glyph glyph-name="semicolon" horiz-adv-x="360" unicode=";" d="M369 525l-37 -174h-162l37 174h162zM55 -142l16 75q42 1 60 15t26 52h-62l36 168h162l-36 -168q-15 -78 -57 -110t-140 -32h-5z"/>
<glyph glyph-name="less" horiz-adv-x="600" unicode="&lt;" d="M662 525l-28 -128l-363 -119v-2l312 -119l-27 -128l-460 188l26 120z"/>
<glyph glyph-name="equal" horiz-adv-x="600" unicode="=" d="M97 219h500l-25 -115h-500zM145 449h500l-24 -115h-500z"/>
<glyph glyph-name="greater" horiz-adv-x="600" unicode="&gt;" d="M162 525l460 -188l-26 -120l-540 -188l27 128l364 119v2l-313 119z"/>
<glyph glyph-name="question" horiz-adv-x="605" unicode="?" d="M393 174l-37 -174h-162l37 174h162zM417 265h-172l7 30q15 72 39 102t98 64l40 17q24 11 36 18t24.5 24t18.5 43q3 12 3 22q0 23 -16.5 31t-53.5 8q-46 0 -70.5 -11.5t-32.5 -49.5l-7 -31h-172l7 31q11 50 31.5 85.5t45.5 56.5t62 32.5t74 15t90 3.5q111 0 165 -25.5 t54 -102.5q0 -25 -8 -65q-20 -92 -57.5 -130t-131.5 -76q-34 -13 -48 -26t-19 -36z"/>
<glyph glyph-name="at" horiz-adv-x="760" unicode="@" d="M606 506l20 51h95l-111 -292q-8 -20 -8 -26q0 -10 13 -10q35 0 77.5 53t58.5 130q7 31 7 63q0 91 -60 141t-161 50q-124 0 -219.5 -83.5t-122.5 -209.5q-8 -40 -8 -70q0 -101 66 -160t177 -59q104 0 205 67h99q-147 -157 -331 -157q-140 0 -228.5 82.5t-88.5 214.5 q0 40 9 82q34 161 169 272t295 111q116 0 201.5 -73t85.5 -183q0 -26 -6 -55q-25 -115 -118 -203t-194 -88q-22 0 -36 9.5t-14 26.5q0 3 2 13l-1 2q-50 -47 -106 -47q-58 0 -96.5 40t-38.5 100q0 20 4 37q20 92 91.5 161t161.5 69q79 0 111 -59zM366 351q-3 -12 -3 -24 q0 -28 15.5 -46t44.5 -18q45 0 80.5 33t44.5 78q3 12 3 23q0 28 -17 45t-47 17q-41 0 -76.5 -33.5t-44.5 -74.5z"/>
<glyph glyph-name="A" horiz-adv-x="733" unicode="A" d="M520 275l-23 325h-2l-161 -325h186zM529 129h-269l-64 -129h-208l384 750h304l69 -750h-204z"/>
<glyph glyph-name="B" horiz-adv-x="738" unicode="B" d="M326 311l-31 -147h151q51 0 75 16t33 60q4 24 4 29q0 26 -17 34t-60 8h-155zM385 586l-29 -136h144q53 0 72.5 13.5t29.5 58.5q4 16 4 30q0 18 -12 25.5t-41 8.5h-168zM60 0l159 750h394q105 0 155 -26t50 -100q0 -26 -8 -66q-17 -79 -50 -120.5t-105 -52.5l-2 -8 q56 -4 79.5 -28t23.5 -68q0 -33 -9 -72q-14 -68 -38 -110t-62.5 -63.5t-80.5 -28.5t-108 -7h-398z"/>
<glyph glyph-name="C" horiz-adv-x="728" unicode="C" d="M549 284h206l-4 -22q-9 -41 -15 -62t-18.5 -52t-32.5 -55t-49 -44q-36 -25 -80 -38t-75 -15t-85 -2h-9q-44 0 -72 1t-64 4.5t-58 10.5t-45.5 20t-36.5 32t-21.5 46.5t-8.5 63.5q0 47 13 106l41 194q16 73 43 124.5t61.5 82.5t85 48.5t101.5 23t123 5.5q58 0 94.5 -2.5 t72 -11t55 -25t31 -44t11.5 -67.5q0 -38 -11 -96l-6 -29h-206l6 29q1 5 1 14q0 37 -25.5 47.5t-81.5 10.5q-43 0 -69 -6.5t-43 -25t-25.5 -42.5t-17.5 -68l-25 -117q-13 -59 -13 -88q0 -36 23 -51.5t82 -15.5q70 0 100 16.5t43 77.5z"/>
<glyph glyph-name="D" horiz-adv-x="775" unicode="D" d="M374 576l-85 -402h175q100 0 128 128l34 157q6 32 6 52q0 37 -19.5 51t-63.5 14h-175zM52 0l159 750h380q131 0 192 -43.5t61 -143.5q0 -45 -12 -104l-34 -157q-33 -159 -109.5 -230.5t-229.5 -71.5h-407z"/>
<glyph glyph-name="E" horiz-adv-x="678" unicode="E" d="M389 586l-30 -137h320l-29 -139h-320l-31 -146h348l-35 -164h-548l159 750h541l-34 -164h-341z"/>
<glyph glyph-name="F" horiz-adv-x="616" unicode="F" d="M380 586l-32 -147h306l-35 -164h-306l-58 -275h-200l159 750h532l-34 -164h-332z"/>
<glyph glyph-name="G" horiz-adv-x="758" unicode="G" d="M830 517h-203q1 6 1 17q0 20 -8.5 33t-27 18t-33 6t-40.5 1h-5q-54 0 -85.5 -7.5t-51 -31t-28 -48t-20.5 -78.5l-26 -122q-8 -36 -8 -66q0 -50 29 -65.5t98 -15.5q77 0 108 25t48 102h-138l29 139h341l-28 -131q-16 -78 -36 -128.5t-48 -85.5t-72.5 -53t-99 -25 t-139.5 -7q-162 0 -235.5 36.5t-73.5 143.5q0 40 13 103l41 194q16 73 43.5 125t62 83t85.5 48.5t102.5 23t123.5 5.5q46 0 69.5 -0.5t60.5 -3.5t55.5 -8.5t42.5 -16.5t35.5 -27t19.5 -40t8 -56q0 -40 -10 -87z"/>
<glyph glyph-name="H" horiz-adv-x="788" unicode="H" d="M884 750l-159 -750h-200l62 294h-261l-62 -294h-200l159 750h200l-60 -282h261l60 282h200z"/>
<glyph glyph-name="I" horiz-adv-x="324" unicode="I" d="M421 750l-159 -750h-200l159 750h200z"/>
<glyph glyph-name="J" horiz-adv-x="602" unicode="J" d="M502 750h200l-110 -519q-16 -77 -37.5 -122t-60.5 -71.5t-89 -35t-133 -8.5q-119 0 -166.5 27.5t-47.5 102.5q0 43 18 128l13 62h190l-13 -62q-7 -33 -7 -47q0 -20 11 -28.5t39 -8.5q44 0 59.5 13t23.5 50z"/>
<glyph glyph-name="K" horiz-adv-x="752" unicode="K" d="M423 750l-60 -282h60l253 282h242l-342 -368l205 -382h-248l-147 294h-60l-62 -294h-200l159 750h200z"/>
<glyph glyph-name="L" horiz-adv-x="585" unicode="L" d="M417 750l-122 -576h313l-37 -174h-513l159 750h200z"/>
<glyph glyph-name="M" horiz-adv-x="1049" unicode="M" d="M363 575l-102 -575h-200l159 750h317l43 -471h7l236 471h325l-159 -750h-200l142 575h-7l-312 -575h-173l-70 575h-6z"/>
<glyph glyph-name="N" horiz-adv-x="871" unicode="N" d="M371 576l-110 -576h-200l159 750h338l93 -576h8l110 576h200l-159 -750h-341l-90 576h-8z"/>
<glyph glyph-name="O" horiz-adv-x="760" unicode="O" d="M416 168q84 0 117 21.5t50 101.5l36 169q7 31 7 55q0 42 -27 54.5t-95 12.5q-83 0 -115.5 -21.5t-51.5 -100.5l-36 -169q-6 -31 -6 -54q0 -44 26 -56.5t95 -12.5zM379 -6q-56 0 -98.5 4.5t-82 17t-64.5 33.5t-39.5 54.5t-14.5 79.5q0 40 10 86l45 212q18 84 54.5 140 t92 84.5t116 39.5t143.5 11q71 0 121.5 -8t92.5 -28t63 -58t21 -95q0 -40 -10 -86l-45 -212q-18 -84 -54.5 -140t-91.5 -84.5t-115.5 -39.5t-143.5 -11z"/>
<glyph glyph-name="P" horiz-adv-x="711" unicode="P" d="M336 366h137q60 2 78.5 19.5t34.5 89.5q7 37 7 52q0 28 -16.5 38.5t-59.5 10.5h-137zM258 0h-200l159 750h377q111 0 161 -39.5t50 -126.5q0 -50 -13 -109q-24 -110 -56.5 -168.5t-93.5 -86.5t-166 -28h-177z"/>
<glyph glyph-name="Q" horiz-adv-x="796" unicode="Q" d="M731 -1l-62 59q-38 -28 -91 -43.5t-90 -18t-91 -2.5q-155 0 -226 40t-71 150q0 50 13 112l33 158q20 91 54 151t87.5 92.5t117 45.5t154.5 13q152 0 224 -41t72 -152q0 -50 -13 -109l-39 -188q-13 -59 -37 -100l70 -56zM513 378l91 -76l26 122q13 60 13 89q0 42 -26 55.5 t-96 13.5q-93 0 -123.5 -28.5t-51.5 -129.5l-29 -135q-7 -37 -7 -53q0 -44 27.5 -56t96.5 -12q60 0 91 11l-114 87z"/>
<glyph glyph-name="R" horiz-adv-x="742" unicode="R" d="M57 0l159 750h386q115 -2 167.5 -32t52.5 -111q0 -38 -10 -84q-10 -47 -16 -70t-19.5 -54.5t-31.5 -48t-49 -32.5t-75 -26l-2 -8q111 -5 111 -97q0 -19 -4 -36l-32 -151h-200l22 105q5 20 5 34q0 60 -67 60h-155l-42 -199h-200zM336 373h155q18 0 32 2.5t23.5 5 t17.5 12.5t12 14.5t9 23t6.5 25.5t7.5 34q5 27 5 39q0 26 -16 36.5t-54 10.5h-155z"/>
<glyph glyph-name="S" horiz-adv-x="716" unicode="S" d="M418 462l82 -6q139 -10 190.5 -35t51.5 -95q0 -33 -11 -86q-19 -93 -42 -130q-59 -96 -242 -112q-43 -4 -93 -4q-43 0 -67 0.5t-58 3.5t-52.5 9t-40.5 17t-33 27t-18.5 40t-7.5 56q0 40 12 97h192q-5 -23 -5 -36q0 -32 24 -41t89 -9q75 0 102.5 12t36.5 57q5 25 5 34 q0 21 -17.5 26.5t-77.5 9.5l-43 3q-132 9 -170 21q-73 22 -84 90q-2 14 -2 31q0 33 11 85q11 53 28.5 91.5t44 63.5t53.5 40t69 22.5t78 9.5t93 2q45 0 70 -1t61.5 -4.5t56.5 -12.5t40.5 -24t29.5 -39.5t9 -58.5q0 -35 -8 -70l-7 -31h-192q4 17 4 34q0 13 -4.5 21 t-10.5 12.5t-21 6.5t-26.5 2.5t-36.5 0.5q-52 0 -80 -8t-37 -20t-14 -36q-3 -15 -3 -25q0 -25 15.5 -31.5t55.5 -9.5z"/>
<glyph glyph-name="T" horiz-adv-x="595" unicode="T" d="M515 576l-122 -576h-200l122 576h-192l37 174h594l-37 -174h-202z"/>
<glyph glyph-name="U" horiz-adv-x="771" unicode="U" d="M668 750h200l-106 -500q-31 -146 -114.5 -201t-253.5 -55q-168 0 -230.5 33.5t-62.5 112.5q0 40 15 110l106 500h200l-105 -496q-4 -16 -4 -31q0 -16 6 -26.5t14 -16t26 -8.5t31.5 -3.5t40.5 -0.5q68 0 94 16t40 79z"/>
<glyph glyph-name="V" horiz-adv-x="711" unicode="V" d="M392 172l287 578h207l-378 -750h-312l-53 750h203l40 -578h6z"/>
<glyph glyph-name="W" horiz-adv-x="1104" unicode="W" d="M836 172l235 578h201l-325 -750h-289l-2 470h-8l-209 -470h-286l-3 750h203l-14 -578h7l263 578h208l12 -578h7z"/>
<glyph glyph-name="X" horiz-adv-x="732" unicode="X" d="M892 750l-284 -364l141 -386h-233l-88 289l-209 -289h-235l307 386l-134 364h234l77 -275l194 275h230z"/>
<glyph glyph-name="Y" horiz-adv-x="708" unicode="Y" d="M883 750l-377 -487l-56 -263h-200l56 263l-163 487h229l73 -289h7l199 289h232z"/>
<glyph glyph-name="Z" horiz-adv-x="659" unicode="Z" d="M795 750l-35 -168l-445 -402l-1 -6h359l-37 -174h-613l36 169l439 401l1 6h-331l37 174h590z"/>
<glyph glyph-name="bracketleft" horiz-adv-x="385" unicode="[" d="M218 756h271l-35 -164h-81l-123 -578h81l-35 -164h-271z"/>
<glyph glyph-name="backslash" horiz-adv-x="640" unicode="\" d="M448 -113l-258 863h137l258 -863h-137z"/>
<glyph glyph-name="bracketright" horiz-adv-x="385" unicode="]" d="M296 -150h-271l35 164h81l123 578h-81l35 164h271z"/>
<glyph glyph-name="asciicircum" horiz-adv-x="600" unicode="^" d="M233 250h-130l296 500h120l84 -500h-130l-47 338h-2z"/>
<glyph glyph-name="underscore" horiz-adv-x="500" unicode="_" d="M484 -75l-11 -50h-500l11 50h500z"/>
<glyph glyph-name="grave" horiz-adv-x="404" unicode="`" d="M286 756l178 -120l-41 -62l-211 71z"/>
<glyph glyph-name="a" horiz-adv-x="609" unicode="a" d="M382 0l23 78h-6q-34 -84 -169 -84q-82 0 -122.5 22.5t-40.5 84.5q0 19 7 56q20 91 74 128t151 37h5q25 0 40.5 -1.5t37.5 -6.5t34 -17.5t14 -33.5h8l18 83q5 25 5 39q0 21 -14 31t-52 10q-36 0 -56 -12t-27 -45h-172q24 109 106 142q49 20 171 20q119 0 168 -23t49 -98 q0 -36 -10 -82l-70 -328h-172zM334 217q-37 0 -58 -11t-29 -44q-2 -12 -2 -16q0 -41 65 -41q56 0 77.5 12t30.5 52q1 4 1 12q0 23 -20.5 29.5t-64.5 6.5z"/>
<glyph glyph-name="b" horiz-adv-x="613" unicode="b" d="M349 126q54 0 75.5 26t39.5 111q11 49 11 77q0 30 -15.5 44.5t-52.5 14.5q-56 0 -81 -25t-43 -111q-13 -57 -13 -83q0 -30 17.5 -42t61.5 -12zM214 750h172l-63 -300h8q29 47 74 66q34 15 89 15q85 0 123.5 -31.5t38.5 -101.5q0 -36 -11 -91l-25 -120q-22 -101 -82 -147 t-158 -46q-62 0 -94.5 20.5t-35.5 76.5h-8l-15 -91h-172z"/>
<glyph glyph-name="c" horiz-adv-x="557" unicode="c" d="M409 210h172q-30 -140 -97 -181q-32 -21 -79 -28t-124 -7q-116 0 -163.5 31t-47.5 110q0 48 17 127q15 72 34 118t53 82.5t88 52.5t133 16q44 0 73 -2t59.5 -10t48 -21.5t28.5 -38t11 -59.5q0 -30 -9 -72h-172q5 22 5 33q0 15 -7 23q-14 15 -65 15q-48 0 -69 -25 t-39 -112q-13 -65 -13 -89q0 -29 14 -38t49 -9q56 0 72.5 16t27.5 68z"/>
<glyph glyph-name="d" horiz-adv-x="612" unicode="d" d="M261 262q-13 -58 -13 -88q0 -31 15.5 -39.5t56.5 -8.5q55 0 79 25t43 111q13 67 13 85q0 29 -16.5 40.5t-60.5 11.5q-61 0 -80 -26t-37 -111zM717 750l-159 -750h-172l23 91h-8q-26 -56 -70 -78q-39 -19 -100 -19q-166 0 -166 130q0 26 8 63l25 120q26 120 82.5 172 t164.5 52q54 0 86.5 -17t42.5 -64h8l63 300h172z"/>
<glyph glyph-name="e" horiz-adv-x="574" unicode="e" d="M411 175h169q-24 -110 -103 -150q-62 -31 -191 -31q-118 0 -167 34t-49 114q0 45 16 120q33 156 96 212.5t218 56.5q117 0 166 -31.5t49 -114.5q0 -45 -16 -123l-6 -29h-341q-9 -42 -9 -66q0 -29 15 -41t53 -12q46 0 69 11.5t31 49.5zM272 328h169q4 20 4 37q0 30 -17 38 t-57 8q-47 0 -67 -16t-32 -67z"/>
<glyph glyph-name="f" horiz-adv-x="393" unicode="f" d="M490 525l-27 -126h-117l-85 -399h-172l85 399h-69l27 126h69l10 51q15 70 45 106t89.5 52t168.5 16h16l-27 -131q-17 5 -31 5q-55 0 -69.5 -14t-25.5 -66l-4 -19h117z"/>
<glyph glyph-name="g" horiz-adv-x="615" unicode="g" d="M46 -47h163q-2 -8 -2 -21q0 -23 15 -32q14 -8 51 -8q56 0 76.5 15.5t31.5 69.5l23 109h-6q-26 -46 -69 -67q-38 -19 -92 -19q-90 0 -127 34.5t-37 99.5q0 43 18 128q15 71 30.5 115t44 82t73.5 55t111 17q61 0 93 -21t35 -78h6l14 93h172l-107 -502q-32 -148 -96.5 -202 t-214.5 -54q-123 0 -168.5 21t-45.5 91q0 28 8 74zM323 132q59 0 81 28t38 102q11 55 11 81q0 34 -16.5 45t-56.5 11q-60 0 -79 -23t-38 -114q-11 -52 -11 -78q0 -31 15.5 -41.5t55.5 -10.5z"/>
<glyph glyph-name="h" horiz-adv-x="619" unicode="h" d="M388 750l-68 -323h7q32 61 75 83q39 21 104 21q140 0 140 -112q0 -19 -7 -56l-77 -363h-172l69 323q3 17 3 30q0 24 -13 35t-45 11q-53 0 -77.5 -27.5t-36.5 -82.5l-61 -289h-172l159 750h172z"/>
<glyph glyph-name="i" horiz-adv-x="257" unicode="i" d="M374 750l-28 -132h-172l28 132h172zM327 525l-112 -525h-172l112 525h172z"/>
<glyph glyph-name="j" horiz-adv-x="242" unicode="j" d="M361 750l-28 -132h-172l28 132h172zM314 525l-113 -532q-18 -85 -67 -120.5t-137 -35.5q-30 0 -49 6l25 118q29 0 42 13.5t17 36.5l110 514h172z"/>
<glyph glyph-name="k" horiz-adv-x="592" unicode="k" d="M386 750l-89 -422h30l146 197h189l-202 -252l124 -273h-201l-81 213h-30l-45 -213h-172l159 750h172z"/>
<glyph glyph-name="l" horiz-adv-x="289" unicode="l" d="M390 750l-159 -750h-172l159 750h172z"/>
<glyph glyph-name="m" horiz-adv-x="929" unicode="m" d="M170 525h167l-16 -74h7q44 80 161 80q40 0 67.5 -5.5t49 -25.5t21.5 -56q0 -10 -1 -16h8q17 52 64.5 77.5t103.5 25.5q153 0 153 -116q0 -19 -7 -56l-76 -359h-172l65 304q6 38 6 50q0 22 -12 33.5t-43 11.5q-46 0 -69 -26.5t-33 -74.5l-63 -298h-172l68 318q5 37 5 39 q0 21 -11.5 31.5t-41.5 10.5q-50 0 -72 -24.5t-34 -76.5l-63 -298h-172z"/>
<glyph glyph-name="n" horiz-adv-x="619" unicode="n" d="M169 525h172l-21 -98h7q32 61 75 83q39 21 104 21q140 0 140 -112q0 -19 -7 -56l-77 -363h-172l69 323q3 17 3 30q0 24 -13 35t-45 11q-53 0 -77.5 -27.5t-36.5 -82.5l-61 -289h-172z"/>
<glyph glyph-name="o" horiz-adv-x="593" unicode="o" d="M384 399q-61 0 -82.5 -25t-39.5 -112q-13 -60 -13 -84q0 -31 17 -41.5t60 -10.5q59 0 78.5 24t38.5 112q13 63 13 87q0 29 -15.5 39.5t-56.5 10.5zM409 531q127 0 176 -27.5t49 -105.5q0 -47 -19 -136q-24 -112 -56.5 -167t-92 -78t-171.5 -23q-124 0 -173 30.5 t-49 109.5q0 49 17 128q23 112 55.5 167t92 78.5t171.5 23.5z"/>
<glyph glyph-name="p" horiz-adv-x="618" unicode="p" d="M398 399q-54 0 -76 -26.5t-39 -110.5q-11 -49 -11 -77q0 -30 15.5 -44.5t52.5 -14.5q56 0 80.5 25t43.5 111q12 60 12 83q0 30 -17 42t-61 12zM7 -227l160 752h172l-22 -83h8q26 51 70 71q36 18 99 18q165 0 165 -131q0 -30 -7 -62l-26 -120q-26 -121 -82 -172.5 t-164 -51.5q-54 0 -87 17.5t-41 67.5h-8l-65 -306h-172z"/>
<glyph glyph-name="q" horiz-adv-x="619" unicode="q" d="M380 399q-54 0 -76 -26.5t-39 -110.5q-11 -49 -11 -77q0 -30 15.5 -44.5t52.5 -14.5q56 0 80.5 25t43.5 111q12 60 12 83q0 30 -17 42t-61 12zM514 -227h-172l65 306h-8q-31 -50 -75 -69q-33 -16 -89 -16q-85 0 -124 32t-39 102q0 35 11 90l26 120q40 193 240 193 q61 0 94 -19.5t37 -69.5h8l14 83h172z"/>
<glyph glyph-name="r" horiz-adv-x="501" unicode="r" d="M398 296l5 25q7 35 7 45q0 33 -35 33q-64 0 -82 -84l-67 -315h-172l112 525h167l-17 -77h7q29 45 65 64q37 19 85 19q101 0 101 -100q0 -39 -12 -94l-9 -41h-155z"/>
<glyph glyph-name="s" horiz-adv-x="578" unicode="s" d="M601 376h-162v6q0 24 -19 33q-12 5 -42 5q-44 0 -64.5 -5t-25.5 -11.5t-9 -25.5q-2 -10 -2 -15q0 -15 17 -22.5t66 -8.5q52 -1 82.5 -3t62.5 -8t48 -17t26 -29.5t10 -46.5q0 -26 -7 -57q-12 -56 -39 -92.5t-69.5 -54t-85 -24t-100.5 -6.5h-14q-36 0 -56 0.5t-49 4 t-45.5 10.5t-33 19.5t-23.5 32.5t-7 47t7 56h172q-2 -14 -2 -19q0 -24 17 -33q15 -7 57 -7q59 0 76 7.5t24 38.5q2 7 2 19q0 23 -17.5 28t-63.5 5q-130 0 -180 24.5t-50 80.5q0 22 6 51q8 36 21 63t27 45t37.5 30.5t42.5 19t51 10t54 4t61 0.5q45 0 71.5 -2t63 -10.5t55 -30 t18.5 -55.5q0 -16 -4 -32z"/>
<glyph glyph-name="t" horiz-adv-x="485" unicode="t" d="M561 525l-27 -126h-199l-50 -235q-2 -16 -2 -20q0 -24 32 -24q8 0 15 2t11.5 3.5t9 7t7 7.5t5.5 11t4 11t4 13t3 13l7 28h137l-10 -47q-22 -104 -71.5 -139.5t-158.5 -35.5q-41 0 -68.5 3.5t-54 13t-39.5 31t-13 53.5q0 24 5 45l55 259h-64l27 126h64l23 111h172 l-23 -111h199z"/>
<glyph glyph-name="u" horiz-adv-x="615" unicode="u" d="M555 0h-167l27 101h-8q-54 -107 -179 -107q-148 0 -148 119q0 23 6 53l77 359h172l-67 -313q-6 -30 -6 -42q0 -44 51 -44q38 0 71.5 20t41.5 56l69 323h172z"/>
<glyph glyph-name="v" horiz-adv-x="530" unicode="v" d="M649 525l-241 -525h-270l-33 525h180l7 -410h5l174 410h178z"/>
<glyph glyph-name="w" horiz-adv-x="838" unicode="w" d="M949 525l-204 -525h-247l5 374h-6l-151 -374h-250l17 525h165l-30 -410h8l175 410h201l-1 -410h7l149 410h162z"/>
<glyph glyph-name="x" horiz-adv-x="545" unicode="x" d="M649 525l-191 -247l93 -278h-202l-38 173l-110 -173h-207l215 278l-82 247h199l29 -145l94 145h200z"/>
<glyph glyph-name="y" horiz-adv-x="533" unicode="y" d="M652 525l-254 -571q-44 -105 -101 -146t-165 -41q-9 0 -18.5 0.5t-21 1.5t-18.5 1l25 119q20 -2 30 -2q49 0 74.5 30t39.5 83h-94l-44 525h180l13 -427h2l176 427h176z"/>
<glyph glyph-name="z" horiz-adv-x="496" unicode="z" d="M152 525h435l-29 -136l-311 -269h254l-26 -120h-454l30 142l304 263h-229z"/>
<glyph glyph-name="braceleft" horiz-adv-x="385" unicode="{" d="M75 242l28 132q82 0 92 44l43 205q9 42 37.5 74.5t56 45.5t48.5 13h142l-28 -132h-37q-21 0 -34 -8.5t-16.5 -17.5t-6.5 -25l-37 -171q-6 -26 -20.5 -45.5t-32.5 -29t-33 -14t-30 -5.5v-2q16 -2 24 -4t23 -8.5t22.5 -21.5t7.5 -37q0 -14 -3 -31l-36 -171q-3 -12 -3 -24 q0 -27 38 -27h37l-28 -132h-142q-30 0 -59 27t-29 75q0 14 3 31l44 205q2 10 2 13q0 41 -71 41h-2z"/>
<glyph glyph-name="bar" horiz-adv-x="529" unicode="|" d="M282 856h126v-1141h-126v1141z"/>
<glyph glyph-name="braceright" horiz-adv-x="385" unicode="}" d="M440 374l-28 -132h-2q-79 0 -91 -54l-44 -205q-13 -62 -59.5 -97.5t-81.5 -35.5h-142l28 132h37q21 0 34 8.5t16.5 17.5t6.5 25l36 171q8 33 22.5 54.5t34 31t31.5 12t30 4.5v2q-78 9 -78 74q0 6 2 20l37 171q3 12 3 24q0 27 -38 27h-37l28 132h142q30 0 59 -27t29 -74 q0 -10 -4 -32l-43 -205q-1 -3 -1 -9q0 -35 73 -35z"/>
<glyph glyph-name="asciitilde" horiz-adv-x="600" unicode="~" d="M529 359h97q-10 -50 -29 -93t-56.5 -77.5t-85.5 -34.5q-30 0 -68 29l-106 80q-26 19 -46 19q-7 0 -13.5 -5.5t-11.5 -17t-8.5 -20t-7.5 -24t-6 -20.5h-97q8 37 21 70t33.5 65.5t52 52t69.5 19.5q33 0 63 -23l94 -78q29 -26 53 -26q18 0 33.5 28t18.5 56z"/>
<glyph glyph-name="uni00A0" horiz-adv-x="360" unicode=" "/>
<glyph glyph-name="exclamdown" horiz-adv-x="349" unicode="¡" d="M34 -227l103 455h172l-89 -455h-186zM368 525l-37 -174h-162l37 174h162z"/>
<glyph glyph-name="cent" d="M393 -11h-76l19 90q-95 0 -134.5 34t-39.5 107q0 45 19 138q15 70 31.5 114t46 80.5t76.5 52.5t116 16l16 75h76l-16 -75q91 0 132 -28.5t41 -94.5q0 -32 -11 -81h-160q2 14 2 21q0 26 -15.5 38.5t-54.5 12.5q-50 0 -69 -24t-36 -107q-17 -79 -17 -106q0 -26 13.5 -33.5 t49.5 -7.5q49 0 70.5 19.5t31.5 69.5h160q-14 -65 -28.5 -102t-42 -66.5t-70.5 -41t-111 -11.5z" unicode="¢"/>
<glyph glyph-name="sterling" d="M808 501h-196q6 27 6 45t-7 26q-13 17 -61 17q-53 0 -75 -18t-33 -71l-17 -79h190l-30 -145h-190q-11 -53 -24 -74.5t-47 -36.5l-1 -5h413l-34 -160h-632l34 160q20 0 35 7.5t22.5 14t15.5 28.5t9.5 28.5t8.5 37.5h-89l30 145h89l23 108q19 85 53 132t102.5 71t183.5 24 q134 0 187.5 -28.5t53.5 -101.5q0 -30 -12 -90z" unicode="£"/>
<glyph glyph-name="currency" d="M340 358q-1 -5 -1 -15q0 -34 22 -55.5t55 -21.5q47 0 78 30.5t36 61.5q4 12 4 26q0 31 -21 53t-56 22q-42 0 -77 -31.5t-40 -69.5zM592 252l63 -81l-86 -68l-64 81q-2 -1 -16.5 -8.5t-20.5 -9.5t-19.5 -7t-26.5 -6.5t-29 -1.5h-4q-63 4 -96 35l-102 -84l-56 70l99 83 q-19 32 -19 72q0 42 18.5 83t44.5 61l-66 81l89 72l64 -82q48 32 112 32h8q69 -3 101 -30l100 82l57 -71l-102 -83q1 -2 6 -16.5t7.5 -27t2.5 -27.5q0 -17 -2 -27q-3 -17 -9 -33t-14 -30t-14 -23t-15 -21t-11 -15z" unicode="¤"/>
<glyph glyph-name="yen" d="M726 558h94l-28 -132h-166l-59 -78h208l-28 -132h-245l-46 -216h-200l46 216h-237l28 132h201l-24 78h-160l28 132h91l-61 192h217l66 -289h7l192 289h220z" unicode="¥"/>
<glyph glyph-name="brokenbar" horiz-adv-x="529" unicode="¦" d="M282 199h126v-398h-126v398zM282 770h126v-399h-126v399z"/>
<glyph glyph-name="section" d="M779 559l-9 -42h-185q5 28 5 41q0 19 -10 28q-16 14 -98 14q-68 0 -90.5 -11t-28.5 -38q-3 -12 -3 -20q0 -6 1.5 -11t5.5 -8.5t7 -5.5t11 -4.5t12.5 -3t16.5 -3t18 -3.5l180 -34q84 -16 116 -36.5t32 -75.5q0 -28 -9 -70q-7 -34 -11 -48.5t-14.5 -39t-27 -40t-40.5 -26.5 q42 -16 42 -69q0 -24 -9 -69q-11 -49 -24 -80t-39 -59.5t-66.5 -44t-104 -24.5t-153.5 -9q-148 0 -207.5 27t-59.5 117q0 41 14 108h185q-4 -21 -4 -41q0 -35 22 -45t84 -10q88 0 116.5 12.5t35.5 47.5q3 12 3 21q0 16 -10.5 25t-23 12.5t-42.5 9.5l-229 41 q-66 12 -91.5 31.5t-25.5 61.5q0 27 11 77q8 38 15.5 62t30 51t56.5 36q-30 25 -30 72q0 29 11 77q10 48 26.5 79.5t53 60.5t103.5 42.5t167 13.5q54 0 87.5 -2t72.5 -9.5t60.5 -21.5t36 -40t14.5 -63q0 -29 -7 -61zM316 215l151 -29q30 -6 42 -6q52 0 67 76q4 20 4 27 q0 20 -17 30t-66 19l-117 23q-36 9 -54 9q-53 0 -68 -73q-4 -17 -4 -31q0 -6 0.5 -11t3 -9t4 -6.5t6.5 -5t7 -4t9 -3t9 -2t11.5 -2.5t11.5 -2z" unicode="§"/>
<glyph glyph-name="dieresis" horiz-adv-x="469" unicode="¨" d="M545 712l-22 -103h-109l22 103h109zM335 712l-22 -103h-109l22 103h109z"/>
<glyph glyph-name="copyright" horiz-adv-x="800" unicode="©" d="M577 303h89q-23 -71 -84.5 -113t-134.5 -42q-84 0 -130.5 48t-46.5 126q0 28 6 56q22 102 94.5 166.5t172.5 64.5q71 0 113.5 -37.5t42.5 -103.5v-10h-89q1 36 -22 57.5t-61 21.5q-61 0 -105 -46t-58 -111q-4 -17 -4 -38q0 -51 26.5 -86.5t76.5 -35.5q37 0 71 23.5 t43 59.5zM417 81q121 0 226 86t131 208q6 31 6 60q0 101 -66.5 167.5t-171.5 66.5q-123 0 -226.5 -86t-129.5 -208q-7 -31 -7 -63q0 -101 66 -166t172 -65zM399 -6q-136 0 -222.5 85.5t-86.5 215.5q0 38 9 80q34 158 169 269.5t293 111.5q136 0 222.5 -85.5t86.5 -215.5 q0 -39 -9 -80q-34 -158 -169 -269.5t-293 -111.5z"/>
<glyph glyph-name="ordfeminine" horiz-adv-x="480" unicode="ª" d="M347 567q-44 0 -52 -36q-2 -10 -2 -13q0 -19 51 -19q29 0 38.5 8t13.5 28q1 3 1 8q0 24 -46 24h-4zM409 596l9 45q4 17 4 30q0 14 -8 17.5t-30 3.5q-42 0 -49 -34h-104q15 66 63 86q30 12 102 12q68 0 100.5 -13t32.5 -58q0 -17 -4 -33l-47 -220h-104l11 52h-2 q-11 -30 -42 -44q-25 -12 -60 -12q-94 0 -94 68q0 17 4 34q12 56 43 78t90 22h10q67 0 72 -34h3z"/>
<glyph glyph-name="guillemotleft" horiz-adv-x="556" unicode="«" d="M506 515l100 -61l-134 -182l60 -169l-121 -66l-84 235zM283 515l100 -61l-134 -182l60 -169l-121 -66l-84 235z"/>
<glyph glyph-name="logicalnot" horiz-adv-x="600" unicode="¬" d="M468 157l38 177h-385l24 115h500l-62 -292h-115z"/>
<glyph glyph-name="uni00AD" horiz-adv-x="272" unicode="­" d="M76 358h272l-35 -164h-272z"/>
<glyph glyph-name="registered" horiz-adv-x="800" unicode="®" d="M408 401h121h5q34 0 52.5 13t26.5 49q1 5 1 12q0 13 -7 21t-21.5 11.5t-24.5 4t-29 0.5h-100zM562 340l63 -174h-98l-56 169h-77l-36 -169h-87l88 412h206q69 0 103.5 -17.5t34.5 -67.5q0 -14 -5 -41q-12 -55 -45.5 -81.5t-90.5 -30.5zM417 81q121 0 226 86t131 208 q6 31 6 60q0 101 -66.5 167.5t-171.5 66.5q-123 0 -226.5 -86t-129.5 -208q-7 -31 -7 -63q0 -101 66 -166t172 -65zM399 -6q-136 0 -222.5 85.5t-86.5 215.5q0 38 9 80q34 158 169 269.5t293 111.5q136 0 222.5 -85.5t86.5 -215.5q0 -39 -9 -80q-34 -158 -169 -269.5 t-293 -111.5z"/>
<glyph glyph-name="macron" horiz-adv-x="464" unicode="¯" d="M225 706h314l-20 -94h-314z"/>
<glyph glyph-name="degree" horiz-adv-x="400" unicode="°" d="M410 606q2 10 2 16q0 28 -19 46.5t-48 18.5q-33 0 -62 -24t-35 -57q-2 -12 -2 -17q0 -27 18.5 -45.5t47.5 -18.5q33 0 62 23.5t36 57.5zM479 606q-13 -62 -66.5 -106t-115.5 -44q-54 0 -88 33.5t-34 84.5q0 10 4 32q12 61 66 105.5t116 44.5q53 0 87 -34t34 -86 q0 -15 -3 -30z"/>
<glyph glyph-name="plusminus" horiz-adv-x="600" unicode="±" d="M50 0l24 115h500l-24 -115h-500zM354 525h115l-25 -118h193l-25 -115h-193l-26 -123h-115l26 123h-192l25 115h192z"/>
<glyph glyph-name="twosuperior" horiz-adv-x="432" unicode="²" d="M489 396l-20 -94h-385l20 94q16 77 51.5 103t153.5 50q67 14 81 22t20 41q3 14 3 22q0 17 -11.5 22.5t-39.5 5.5h-9q-45 0 -58.5 -8.5t-20.5 -43.5l-5 -22h-124l5 22q18 86 70 116t153 30q85 0 126.5 -18.5t41.5 -76.5q0 -20 -6 -47q-16 -73 -48 -99t-118 -47 q-23 -5 -52.5 -10.5t-39.5 -8t-23 -9t-17.5 -16.5t-8.5 -28h261z"/>
<glyph glyph-name="threesuperior" horiz-adv-x="432" unicode="³" d="M299 489l18 87h31q46 0 58.5 6.5t17.5 30.5q4 20 4 24q0 14 -13 19.5t-48 5.5q-28 0 -40.5 -2t-23 -13.5t-15.5 -36.5l-2 -9h-124l3 16q8 38 22.5 64t32 40.5t45 22.5t52.5 10t64 2q38 0 63 -2.5t54 -10.5t43.5 -27.5t14.5 -49.5q0 -14 -3 -31q-20 -92 -96 -101l-2 -5 q65 -3 65 -63q0 -18 -4 -34q-12 -56 -46 -86.5t-76.5 -39t-110.5 -8.5q-39 0 -64 2.5t-51 11.5t-38.5 29t-12.5 51q0 24 5 44l5 24h124l-3 -15q-2 -8 -2 -20q0 -15 8.5 -22.5t20.5 -9t34 -1.5q44 0 61 9t25 46q2 14 2 17q0 14 -14 19.5t-53 5.5h-31z"/>
<glyph glyph-name="acute" horiz-adv-x="404" unicode="´" d="M440 756l26 -111l-241 -71l-15 62z"/>
<glyph glyph-name="mu" horiz-adv-x="615" unicode="µ" d="M558 0h-167l27 101h-8q-54 -107 -185 -107l-47 -221h-172l160 752h172l-67 -313q-6 -30 -6 -42q0 -44 51 -44q38 0 71.5 20t41.5 56l69 323h172z"/>
<glyph glyph-name="paragraph" d="M468 340l57 265h-100q-41 0 -64 -5.5t-38 -23.5t-21.5 -38.5t-15.5 -64.5q-13 -57 -13 -81q0 -30 20.5 -41t75.5 -11h99zM665 -227h-120l177 832h-77l-177 -832h-120l89 422h-130q-125 0 -175 31t-50 111q0 49 19 136q32 149 103.5 213t210.5 64h457z" unicode="¶"/>
<glyph glyph-name="periodcentered" horiz-adv-x="360" unicode="·" d="M338 363l-37 -174h-162l37 174h162z"/>
<glyph glyph-name="cedilla" horiz-adv-x="322" unicode="¸" d="M194 -41l27 -82l-155 -52l-17 52z"/>
<glyph glyph-name="onesuperior" horiz-adv-x="432" unicode="¹" d="M502 756l-97 -454h-130l74 348l-148 -106l-58 76l207 136h152z"/>
<glyph glyph-name="ordmasculine" horiz-adv-x="480" unicode="º" d="M384 679q-32 0 -45.5 -16t-25.5 -71q-8 -37 -8 -53q0 -20 9.5 -27t32.5 -7q32 0 46 16t26 71q7 32 7 53t-9.5 27.5t-32.5 6.5zM401 756q76 0 105 -17.5t29 -62.5q0 -26 -12 -84q-15 -68 -32 -100t-53.5 -48t-106.5 -16q-75 0 -104.5 17.5t-29.5 62.5q0 26 12 84 q20 98 56 131t136 33z"/>
<glyph glyph-name="guillemotright" horiz-adv-x="556" unicode="»" d="M160 37l-100 61l135 182l-61 169l121 66l85 -235zM383 37l-100 61l135 182l-61 169l121 66l85 -235z"/>
<glyph glyph-name="onequarter" horiz-adv-x="1080" unicode="¼" d="M451 750l-95 -448h-130l73 342l-149 -106l-57 76l206 136h152zM950 750l-602 -750h-120l602 750h120zM890 176l39 182h-5l-187 -182h153zM1073 450l-59 -274h41l-18 -87h-41l-19 -89h-124l19 89h-255l27 128l237 233h192z"/>
<glyph glyph-name="onehalf" horiz-adv-x="1080" unicode="½" d="M1057 94l-20 -94h-385l20 94q16 77 51.5 103t153.5 50q67 14 81 22t20 41q3 12 3 21q0 17 -11.5 23t-39.5 6h-9q-45 0 -58.5 -8.5t-21.5 -43.5l-4 -22h-124l4 22q18 86 70 116t153 30q85 0 126.5 -18.5t41.5 -76.5q0 -20 -6 -47q-15 -73 -47 -99t-118 -47 q-23 -5 -52.5 -10.5t-39.5 -8t-23 -9t-17.5 -16.5t-8.5 -28h261zM453 750l-95 -448h-130l73 342l-149 -106l-58 76l207 136h152zM952 750l-602 -750h-120l602 750h120z"/>
<glyph glyph-name="threequarters" horiz-adv-x="1080" unicode="¾" d="M296 489l18 87h31q46 0 58.5 6.5t17.5 30.5q4 20 4 24q0 14 -13 19.5t-48 5.5q-28 0 -40.5 -2t-23 -13.5t-15.5 -36.5l-2 -9h-124l3 16q8 38 22.5 64t32 40.5t45 22.5t52.5 10t64 2q38 0 63 -2.5t54 -10.5t43.5 -27.5t14.5 -49.5q0 -14 -3 -31q-20 -92 -96 -101l-2 -5 q65 -3 65 -63q0 -18 -4 -34q-12 -56 -46 -86.5t-76.5 -39t-110.5 -8.5q-39 0 -64 2.5t-51 11.5t-38.5 29t-12.5 51q0 24 5 44l5 24h124l-3 -15q-2 -8 -2 -20q0 -15 8.5 -22.5t20.5 -9t34 -1.5q44 0 61 9t25 46q2 14 2 17q0 14 -14 19.5t-53 5.5h-31zM1007 750l-602 -750 h-120l602 750h120zM927 176l39 182h-5l-187 -182h153zM1110 450l-59 -274h41l-18 -87h-41l-19 -89h-124l19 89h-255l27 128l237 233h192z"/>
<glyph glyph-name="questiondown" horiz-adv-x="605" unicode="¿" d="M524 525l-37 -174h-162l37 174h162zM300 258h172l-7 -30q-15 -72 -39 -102t-98 -64l-39 -17q-25 -11 -37 -18t-24.5 -24t-18.5 -43q-3 -12 -3 -22q0 -24 16.5 -31.5t54.5 -7.5q46 0 70 11.5t32 49.5l7 31h172l-7 -31q-11 -50 -31.5 -85.5t-45.5 -56.5t-62 -32.5t-74 -15 t-90 -3.5q-111 0 -165 25.5t-54 102.5q0 25 8 65q20 92 57.5 130t131.5 76q34 13 48 26t19 36z"/>
<glyph glyph-name="Agrave" horiz-adv-x="733" unicode="À" d="M499 981l178 -120l-41 -62l-211 71zM520 275l-23 325h-2l-161 -325h186zM529 129h-269l-64 -129h-208l384 750h304l69 -750h-204z"/>
<glyph glyph-name="Aacute" horiz-adv-x="733" unicode="Á" d="M653 981l26 -111l-241 -71l-15 62zM520 275l-23 325h-2l-161 -325h186zM529 129h-269l-64 -129h-208l384 750h304l69 -750h-204z"/>
<glyph glyph-name="Acircumflex" horiz-adv-x="733" unicode="Â" d="M574 981l159 -109l-37 -57l-145 62l-165 -62l-15 57zM520 275l-23 325h-2l-161 -325h186zM529 129h-269l-64 -129h-208l384 750h304l69 -750h-204z"/>
<glyph glyph-name="Atilde" horiz-adv-x="733" unicode="Ã" d="M706 958l73 -41q-71 -99 -144 -99q-46 0 -92 34q-3 2 -11 8t-11 8.5t-10 7t-11 6t-10 3t-11 1.5q-35 0 -69 -45l-73 44q76 96 151 96q39 0 85 -34q47 -35 71 -35q29 0 62 46zM520 275l-23 325h-2l-161 -325h186zM529 129h-269l-64 -129h-208l384 750h304l69 -750h-204z "/>
<glyph glyph-name="Adieresis" horiz-adv-x="733" unicode="Ä" d="M725 937l-22 -103h-109l22 103h109zM515 937l-22 -103h-109l22 103h109zM520 275l-23 325h-2l-161 -325h186zM529 129h-269l-64 -129h-208l384 750h304l69 -750h-204z"/>
<glyph glyph-name="Aring" horiz-adv-x="733" unicode="Å" d="M510 889q-1 -3 -1 -9q0 -16 10 -26.5t26 -10.5q18 0 35 13.5t21 32.5q1 3 1 9q0 16 -10.5 26t-26.5 10q-19 0 -35 -13t-20 -32zM458 889q8 40 43 68.5t76 28.5q34 0 56 -22t22 -55q0 -6 -2 -20q-9 -40 -43.5 -69t-74.5 -29q-35 0 -57 22t-22 55q0 14 2 21zM520 275 l-23 325h-2l-161 -325h186zM529 129h-269l-64 -129h-208l384 750h304l69 -750h-204z"/>
<glyph glyph-name="AE" horiz-adv-x="1074" unicode="Æ" d="M499 0l28 133h-258l-78 -133h-217l453 750h764l-34 -164h-343l-30 -140h316l-30 -139h-316l-30 -143h343l-35 -164h-533zM557 272l67 314h-86l-186 -314h205z"/>
<glyph glyph-name="Ccedilla" horiz-adv-x="728" unicode="Ç" d="M549 284h206l-4 -22q-9 -41 -15 -62t-18.5 -52t-32.5 -55t-49 -44q-36 -25 -80 -38t-75 -15t-85 -2h-9q-44 0 -72 1t-64 4.5t-58 10.5t-45.5 20t-36.5 32t-21.5 46.5t-8.5 63.5q0 47 13 106l41 194q16 73 43 124.5t61.5 82.5t85 48.5t101.5 23t123 5.5q58 0 94.5 -2.5 t72 -11t55 -25t31 -44t11.5 -67.5q0 -38 -11 -96l-6 -29h-206l6 29q1 5 1 14q0 37 -25.5 47.5t-81.5 10.5q-43 0 -69 -6.5t-43 -25t-25.5 -42.5t-17.5 -68l-25 -117q-13 -59 -13 -88q0 -36 23 -51.5t82 -15.5q70 0 100 16.5t43 77.5zM397 -41l27 -82l-155 -52l-17 52z"/>
<glyph glyph-name="Egrave" horiz-adv-x="678" unicode="È" d="M471 981l178 -120l-41 -62l-211 71zM389 586l-30 -137h320l-29 -139h-320l-31 -146h348l-35 -164h-548l159 750h541l-34 -164h-341z"/>
<glyph glyph-name="Eacute" horiz-adv-x="678" unicode="É" d="M625 981l26 -111l-241 -71l-15 62zM389 586l-30 -137h320l-29 -139h-320l-31 -146h348l-35 -164h-548l159 750h541l-34 -164h-341z"/>
<glyph glyph-name="Ecircumflex" horiz-adv-x="678" unicode="Ê" d="M546 981l159 -109l-37 -57l-145 62l-165 -62l-15 57zM389 586l-30 -137h320l-29 -139h-320l-31 -146h348l-35 -164h-548l159 750h541l-34 -164h-341z"/>
<glyph glyph-name="Edieresis" horiz-adv-x="678" unicode="Ë" d="M698 937l-22 -103h-109l22 103h109zM488 937l-22 -103h-109l22 103h109zM389 586l-30 -137h320l-29 -139h-320l-31 -146h348l-35 -164h-548l159 750h541l-34 -164h-341z"/>
<glyph glyph-name="Igrave" horiz-adv-x="324" unicode="Ì" d="M294 981l178 -120l-41 -62l-211 71zM421 750l-159 -750h-200l159 750h200z"/>
<glyph glyph-name="Iacute" horiz-adv-x="324" unicode="Í" d="M448 981l26 -111l-241 -71l-15 62zM421 750l-159 -750h-200l159 750h200z"/>
<glyph glyph-name="Icircumflex" horiz-adv-x="324" unicode="Î" d="M369 981l159 -109l-37 -57l-145 62l-165 -62l-15 57zM421 750l-159 -750h-200l159 750h200z"/>
<glyph glyph-name="Idieresis" horiz-adv-x="324" unicode="Ï" d="M521 937l-22 -103h-109l22 103h109zM311 937l-22 -103h-109l22 103h109zM421 750l-159 -750h-200l159 750h200z"/>
<glyph glyph-name="Eth" horiz-adv-x="775" unicode="Ð" d="M374 576l-26 -123h137l-29 -139h-137l-30 -140h175q100 0 128 128l34 157q6 32 6 52q0 37 -19.5 51t-63.5 14h-175zM148 453l63 297h380q131 0 192 -43.5t61 -143.5q0 -45 -12 -104l-34 -157q-33 -159 -109.5 -230.5t-229.5 -71.5h-407l67 314h-84l29 139h84z"/>
<glyph glyph-name="Ntilde" horiz-adv-x="871" unicode="Ñ" d="M775 958l73 -41q-71 -99 -144 -99q-46 0 -92 34q-3 2 -11 8t-11 8.5t-10 7t-11 6t-10 3t-11 1.5q-35 0 -69 -45l-73 44q76 96 151 96q39 0 85 -34q47 -35 71 -35q29 0 62 46zM371 576l-110 -576h-200l159 750h338l93 -576h8l110 576h200l-159 -750h-341l-90 576h-8z"/>
<glyph glyph-name="Ograve" horiz-adv-x="760" unicode="Ò" d="M512 981l178 -120l-41 -62l-211 71zM416 168q84 0 117 21.5t50 101.5l36 169q7 31 7 55q0 42 -27 54.5t-95 12.5q-83 0 -115.5 -21.5t-51.5 -100.5l-36 -169q-6 -31 -6 -54q0 -44 26 -56.5t95 -12.5zM379 -6q-56 0 -98.5 4.5t-82 17t-64.5 33.5t-39.5 54.5t-14.5 79.5 q0 40 10 86l45 212q18 84 54.5 140t92 84.5t116 39.5t143.5 11q71 0 121.5 -8t92.5 -28t63 -58t21 -95q0 -40 -10 -86l-45 -212q-18 -84 -54.5 -140t-91.5 -84.5t-115.5 -39.5t-143.5 -11z"/>
<glyph glyph-name="Oacute" horiz-adv-x="760" unicode="Ó" d="M666 981l26 -111l-241 -71l-15 62zM416 168q84 0 117 21.5t50 101.5l36 169q7 31 7 55q0 42 -27 54.5t-95 12.5q-83 0 -115.5 -21.5t-51.5 -100.5l-36 -169q-6 -31 -6 -54q0 -44 26 -56.5t95 -12.5zM379 -6q-56 0 -98.5 4.5t-82 17t-64.5 33.5t-39.5 54.5t-14.5 79.5 q0 40 10 86l45 212q18 84 54.5 140t92 84.5t116 39.5t143.5 11q71 0 121.5 -8t92.5 -28t63 -58t21 -95q0 -40 -10 -86l-45 -212q-18 -84 -54.5 -140t-91.5 -84.5t-115.5 -39.5t-143.5 -11z"/>
<glyph glyph-name="Ocircumflex" horiz-adv-x="760" unicode="Ô" d="M587 981l159 -109l-37 -57l-145 62l-165 -62l-15 57zM416 168q84 0 117 21.5t50 101.5l36 169q7 31 7 55q0 42 -27 54.5t-95 12.5q-83 0 -115.5 -21.5t-51.5 -100.5l-36 -169q-6 -31 -6 -54q0 -44 26 -56.5t95 -12.5zM379 -6q-56 0 -98.5 4.5t-82 17t-64.5 33.5 t-39.5 54.5t-14.5 79.5q0 40 10 86l45 212q18 84 54.5 140t92 84.5t116 39.5t143.5 11q71 0 121.5 -8t92.5 -28t63 -58t21 -95q0 -40 -10 -86l-45 -212q-18 -84 -54.5 -140t-91.5 -84.5t-115.5 -39.5t-143.5 -11z"/>
<glyph glyph-name="Otilde" horiz-adv-x="760" unicode="Õ" d="M720 958l73 -41q-71 -99 -144 -99q-46 0 -92 34q-3 2 -11 8t-11 8.5t-10 7t-11 6t-10 3t-11 1.5q-35 0 -69 -45l-73 44q76 96 151 96q39 0 85 -34q47 -35 71 -35q29 0 62 46zM416 168q84 0 117 21.5t50 101.5l36 169q7 31 7 55q0 42 -27 54.5t-95 12.5 q-83 0 -115.5 -21.5t-51.5 -100.5l-36 -169q-6 -31 -6 -54q0 -44 26 -56.5t95 -12.5zM379 -6q-56 0 -98.5 4.5t-82 17t-64.5 33.5t-39.5 54.5t-14.5 79.5q0 40 10 86l45 212q18 84 54.5 140t92 84.5t116 39.5t143.5 11q71 0 121.5 -8t92.5 -28t63 -58t21 -95q0 -40 -10 -86 l-45 -212q-18 -84 -54.5 -140t-91.5 -84.5t-115.5 -39.5t-143.5 -11z"/>
<glyph glyph-name="Odieresis" horiz-adv-x="760" unicode="Ö" d="M739 937l-22 -103h-109l22 103h109zM529 937l-22 -103h-109l22 103h109zM416 168q84 0 117 21.5t50 101.5l36 169q7 31 7 55q0 42 -27 54.5t-95 12.5q-83 0 -115.5 -21.5t-51.5 -100.5l-36 -169q-6 -31 -6 -54q0 -44 26 -56.5t95 -12.5zM379 -6q-56 0 -98.5 4.5t-82 17 t-64.5 33.5t-39.5 54.5t-14.5 79.5q0 40 10 86l45 212q18 84 54.5 140t92 84.5t116 39.5t143.5 11q71 0 121.5 -8t92.5 -28t63 -58t21 -95q0 -40 -10 -86l-45 -212q-18 -84 -54.5 -140t-91.5 -84.5t-115.5 -39.5t-143.5 -11z"/>
<glyph glyph-name="multiply" horiz-adv-x="600" unicode="×" d="M143 438l107 87l127 -161l197 161l69 -87l-196 -162l127 -162l-106 -88l-128 162l-196 -162l-70 88l197 162z"/>
<glyph glyph-name="Oslash" horiz-adv-x="760" unicode="Ø" d="M304 320l315 230q-12 15 -31 22.5t-33.5 8.5t-44.5 1q-50 0 -75.5 -4.5t-49 -22.5t-36.5 -52t-26 -96zM615 426l-313 -227q9 -31 126 -31q131 0 153 98zM936 781l-30 -141l-67 -48v-17q0 -62 -26 -184q-16 -78 -31 -129t-37.5 -100t-51.5 -77t-72 -50.5t-100.5 -31.5 t-135.5 -9q-47 0 -74.5 1.5t-70 7.5t-73 21.5t-49.5 41.5l-132 -96l29 139l65 46q-4 22 -4 37q0 24 7 55l25 119q25 120 51.5 188t75.5 117t122 67t190 18q50 0 76 -1.5t65 -7t66.5 -21t48.5 -40.5z"/>
<glyph glyph-name="Ugrave" horiz-adv-x="771" unicode="Ù" d="M518 981l178 -120l-41 -62l-211 71zM668 750h200l-106 -500q-31 -146 -114.5 -201t-253.5 -55q-168 0 -230.5 33.5t-62.5 112.5q0 40 15 110l106 500h200l-105 -496q-4 -16 -4 -31q0 -16 6 -26.5t14 -16t26 -8.5t31.5 -3.5t40.5 -0.5q68 0 94 16t40 79z"/>
<glyph glyph-name="Uacute" horiz-adv-x="771" unicode="Ú" d="M672 981l26 -111l-241 -71l-15 62zM668 750h200l-106 -500q-31 -146 -114.5 -201t-253.5 -55q-168 0 -230.5 33.5t-62.5 112.5q0 40 15 110l106 500h200l-105 -496q-4 -16 -4 -31q0 -16 6 -26.5t14 -16t26 -8.5t31.5 -3.5t40.5 -0.5q68 0 94 16t40 79z"/>
<glyph glyph-name="Ucircumflex" horiz-adv-x="771" unicode="Û" d="M593 981l159 -109l-37 -57l-145 62l-165 -62l-15 57zM668 750h200l-106 -500q-31 -146 -114.5 -201t-253.5 -55q-168 0 -230.5 33.5t-62.5 112.5q0 40 15 110l106 500h200l-105 -496q-4 -16 -4 -31q0 -16 6 -26.5t14 -16t26 -8.5t31.5 -3.5t40.5 -0.5q68 0 94 16t40 79z "/>
<glyph glyph-name="Udieresis" horiz-adv-x="771" unicode="Ü" d="M744 937l-22 -103h-109l22 103h109zM534 937l-22 -103h-109l22 103h109zM668 750h200l-106 -500q-31 -146 -114.5 -201t-253.5 -55q-168 0 -230.5 33.5t-62.5 112.5q0 40 15 110l106 500h200l-105 -496q-4 -16 -4 -31q0 -16 6 -26.5t14 -16t26 -8.5t31.5 -3.5t40.5 -0.5 q68 0 94 16t40 79z"/>
<glyph glyph-name="Yacute" horiz-adv-x="708" unicode="Ý" d="M640 981l26 -111l-241 -71l-15 62zM883 750l-377 -487l-56 -263h-200l56 263l-163 487h229l73 -289h7l199 289h232z"/>
<glyph glyph-name="Thorn" horiz-adv-x="711" unicode="Þ" d="M315 270h137q61 2 79.5 19.5t34.5 89.5q7 37 7 52q0 28 -16.5 38.5t-59.5 10.5h-137zM258 0h-200l159 750h200l-20 -96h177q111 0 161 -39.5t50 -127.5q0 -49 -13 -108q-24 -110 -57 -168.5t-94 -86.5t-166 -28h-177z"/>
<glyph glyph-name="germandbls" horiz-adv-x="617" unicode="ß" d="M229 0h-172l120 565q12 58 37.5 96.5t64.5 59t83 28t105 7.5q40 0 65.5 -1.5t57.5 -7.5t50 -17.5t31 -33.5t13 -53q0 -24 -5 -45q-24 -115 -148 -130l-1 -8q65 -1 91.5 -31t26.5 -83q0 -42 -13 -101q-27 -128 -83.5 -189.5t-178.5 -61.5q-13 0 -28 1t-33 2.5t-28 2.5 l26 121q20 -7 44 -7q50 0 71 25.5t38 105.5q14 63 14 95q0 34 -16 52t-56 18h-16l25 115h19q35 0 55.5 10.5t27.5 41.5q2 14 2 18q0 46 -76 46q-40 0 -62 -16t-31 -60z"/>
<glyph glyph-name="agrave" horiz-adv-x="609" unicode="à" d="M389 756l178 -120l-41 -62l-211 71zM382 0l23 78h-6q-34 -84 -169 -84q-82 0 -122.5 22.5t-40.5 84.5q0 19 7 56q20 91 74 128t151 37h5q25 0 40.5 -1.5t37.5 -6.5t34 -17.5t14 -33.5h8l18 83q5 25 5 39q0 21 -14 31t-52 10q-36 0 -56 -12t-27 -45h-172q24 109 106 142 q49 20 171 20q119 0 168 -23t49 -98q0 -36 -10 -82l-70 -328h-172zM334 217q-37 0 -58 -11t-29 -44q-2 -12 -2 -16q0 -41 65 -41q56 0 77.5 12t30.5 52q1 4 1 12q0 23 -20.5 29.5t-64.5 6.5z"/>
<glyph glyph-name="aacute" horiz-adv-x="609" unicode="á" d="M543 756l26 -111l-241 -71l-15 62zM382 0l23 78h-6q-34 -84 -169 -84q-82 0 -122.5 22.5t-40.5 84.5q0 19 7 56q20 91 74 128t151 37h5q25 0 40.5 -1.5t37.5 -6.5t34 -17.5t14 -33.5h8l18 83q5 25 5 39q0 21 -14 31t-52 10q-36 0 -56 -12t-27 -45h-172q24 109 106 142 q49 20 171 20q119 0 168 -23t49 -98q0 -36 -10 -82l-70 -328h-172zM334 217q-37 0 -58 -11t-29 -44q-2 -12 -2 -16q0 -41 65 -41q56 0 77.5 12t30.5 52q1 4 1 12q0 23 -20.5 29.5t-64.5 6.5z"/>
<glyph glyph-name="acircumflex" horiz-adv-x="609" unicode="â" d="M464 756l160 -109l-38 -57l-144 62l-166 -62l-14 57zM382 0l23 78h-6q-34 -84 -169 -84q-82 0 -122.5 22.5t-40.5 84.5q0 19 7 56q20 91 74 128t151 37h5q25 0 40.5 -1.5t37.5 -6.5t34 -17.5t14 -33.5h8l18 83q5 25 5 39q0 21 -14 31t-52 10q-36 0 -56 -12t-27 -45h-172 q24 109 106 142q49 20 171 20q119 0 168 -23t49 -98q0 -36 -10 -82l-70 -328h-172zM334 217q-37 0 -58 -11t-29 -44q-2 -12 -2 -16q0 -41 65 -41q56 0 77.5 12t30.5 52q1 4 1 12q0 23 -20.5 29.5t-64.5 6.5z"/>
<glyph glyph-name="atilde" horiz-adv-x="609" unicode="ã" d="M596 733l73 -41q-71 -99 -144 -99q-44 0 -92 34q-3 2 -11 8t-11 8.5t-10 7t-11 6t-10 3t-11 1.5q-35 0 -69 -45l-73 44q76 96 151 96q39 0 85 -34q2 -1 8 -5.5l8 -6t7.5 -5.5t8 -5t7.5 -4t8 -4l7.5 -2.5t8.5 -2t8 -0.5q29 0 62 46zM382 0l23 78h-6q-34 -84 -169 -84 q-82 0 -122.5 22.5t-40.5 84.5q0 19 7 56q20 91 74 128t151 37h5q25 0 40.5 -1.5t37.5 -6.5t34 -17.5t14 -33.5h8l18 83q5 25 5 39q0 21 -14 31t-52 10q-36 0 -56 -12t-27 -45h-172q24 109 106 142q49 20 171 20q119 0 168 -23t49 -98q0 -36 -10 -82l-70 -328h-172zM334 217 q-37 0 -58 -11t-29 -44q-2 -12 -2 -16q0 -41 65 -41q56 0 77.5 12t30.5 52q1 4 1 12q0 23 -20.5 29.5t-64.5 6.5z"/>
<glyph glyph-name="adieresis" horiz-adv-x="609" unicode="ä" d="M615 712l-22 -103h-109l22 103h109zM405 712l-22 -103h-109l22 103h109zM382 0l23 78h-6q-34 -84 -169 -84q-82 0 -122.5 22.5t-40.5 84.5q0 19 7 56q20 91 74 128t151 37h5q25 0 40.5 -1.5t37.5 -6.5t34 -17.5t14 -33.5h8l18 83q5 25 5 39q0 21 -14 31t-52 10 q-36 0 -56 -12t-27 -45h-172q24 109 106 142q49 20 171 20q119 0 168 -23t49 -98q0 -36 -10 -82l-70 -328h-172zM334 217q-37 0 -58 -11t-29 -44q-2 -12 -2 -16q0 -41 65 -41q56 0 77.5 12t30.5 52q1 4 1 12q0 23 -20.5 29.5t-64.5 6.5z"/>
<glyph glyph-name="aring" horiz-adv-x="609" unicode="å" d="M400 664q-1 -3 -1 -9q0 -16 10 -26.5t26 -10.5q18 0 35 13.5t21 32.5q1 3 1 9q0 16 -10.5 26t-26.5 10q-19 0 -35 -13t-20 -32zM348 664q9 40 43.5 68.5t75.5 28.5q34 0 56 -21.5t22 -54.5q0 -14 -2 -21q-8 -40 -43 -69t-75 -29q-35 0 -57 22.5t-22 55.5q0 6 2 20zM382 0 l23 78h-6q-34 -84 -169 -84q-82 0 -122.5 22.5t-40.5 84.5q0 19 7 56q20 91 74 128t151 37h5q25 0 40.5 -1.5t37.5 -6.5t34 -17.5t14 -33.5h8l18 83q5 25 5 39q0 21 -14 31t-52 10q-36 0 -56 -12t-27 -45h-172q24 109 106 142q49 20 171 20q119 0 168 -23t49 -98 q0 -36 -10 -82l-70 -328h-172zM334 217q-37 0 -58 -11t-29 -44q-2 -12 -2 -16q0 -41 65 -41q56 0 77.5 12t30.5 52q1 4 1 12q0 23 -20.5 29.5t-64.5 6.5z"/>
<glyph glyph-name="ae" horiz-adv-x="927" unicode="æ" d="M435 263l18 83q5 25 5 39q0 21 -14 31t-52 10q-36 0 -56 -12t-27 -45h-172q24 109 106 142q49 20 171 20q149 0 153 -71h5q30 71 177 71q117 0 166 -31.5t49 -114.5q0 -45 -16 -123l-6 -29h-341q-9 -42 -9 -66q0 -29 15 -41t53 -12q46 0 69 11.5t31 49.5h169 q-24 -111 -101 -150q-63 -31 -193 -31q-161 0 -170 79h-6q-13 -22 -33.5 -37.5t-40.5 -23.5t-50.5 -12t-51.5 -5t-56 -1q-82 0 -122.5 22.5t-40.5 84.5q0 19 7 56q20 91 74 128t151 37q26 0 41.5 -1t38.5 -6t36 -18t15 -34h8zM331 218q-37 0 -58 -11t-28 -44q-2 -12 -2 -16 q0 -41 65 -41q56 0 77 12t30 52q1 4 1 12q0 23 -20.5 29.5t-64.5 6.5zM621 328h169q5 27 5 40q0 31 -17.5 43t-54.5 12q-45 0 -67.5 -21.5t-34.5 -73.5z"/>
<glyph glyph-name="ccedilla" horiz-adv-x="557" unicode="ç" d="M409 210h172q-30 -140 -97 -181q-32 -21 -79 -28t-124 -7q-116 0 -163.5 31t-47.5 110q0 48 17 127q15 72 34 118t53 82.5t88 52.5t133 16q44 0 73 -2t59.5 -10t48 -21.5t28.5 -38t11 -59.5q0 -30 -9 -72h-172q5 22 5 33q0 15 -7 23q-14 15 -65 15q-48 0 -69 -25 t-39 -112q-13 -65 -13 -89q0 -29 14 -38t49 -9q56 0 72.5 16t27.5 68zM312 -41l27 -82l-155 -52l-17 52z"/>
<glyph glyph-name="egrave" horiz-adv-x="574" unicode="è" d="M371 756l178 -120l-41 -62l-211 71zM411 175h169q-24 -110 -103 -150q-62 -31 -191 -31q-118 0 -167 34t-49 114q0 45 16 120q33 156 96 212.5t218 56.5q117 0 166 -31.5t49 -114.5q0 -45 -16 -123l-6 -29h-341q-9 -42 -9 -66q0 -29 15 -41t53 -12q46 0 69 11.5t31 49.5z M272 328h169q4 20 4 37q0 30 -17 38t-57 8q-47 0 -67 -16t-32 -67z"/>
<glyph glyph-name="eacute" horiz-adv-x="574" unicode="é" d="M525 756l26 -111l-241 -71l-15 62zM411 175h169q-24 -110 -103 -150q-62 -31 -191 -31q-118 0 -167 34t-49 114q0 45 16 120q33 156 96 212.5t218 56.5q117 0 166 -31.5t49 -114.5q0 -45 -16 -123l-6 -29h-341q-9 -42 -9 -66q0 -29 15 -41t53 -12q46 0 69 11.5t31 49.5z M272 328h169q4 20 4 37q0 30 -17 38t-57 8q-47 0 -67 -16t-32 -67z"/>
<glyph glyph-name="ecircumflex" horiz-adv-x="574" unicode="ê" d="M446 756l160 -109l-38 -57l-144 62l-166 -62l-14 57zM411 175h169q-24 -110 -103 -150q-62 -31 -191 -31q-118 0 -167 34t-49 114q0 45 16 120q33 156 96 212.5t218 56.5q117 0 166 -31.5t49 -114.5q0 -45 -16 -123l-6 -29h-341q-9 -42 -9 -66q0 -29 15 -41t53 -12 q46 0 69 11.5t31 49.5zM272 328h169q4 20 4 37q0 30 -17 38t-57 8q-47 0 -67 -16t-32 -67z"/>
<glyph glyph-name="edieresis" horiz-adv-x="574" unicode="ë" d="M598 712l-22 -103h-109l22 103h109zM388 712l-22 -103h-109l22 103h109zM411 175h169q-24 -110 -103 -150q-62 -31 -191 -31q-118 0 -167 34t-49 114q0 45 16 120q33 156 96 212.5t218 56.5q117 0 166 -31.5t49 -114.5q0 -45 -16 -123l-6 -29h-341q-9 -42 -9 -66 q0 -29 15 -41t53 -12q46 0 69 11.5t31 49.5zM272 328h169q4 20 4 37q0 30 -17 38t-57 8q-47 0 -67 -16t-32 -67z"/>
<glyph glyph-name="igrave" horiz-adv-x="257" unicode="ì" d="M213 756l178 -120l-41 -62l-211 71zM327 525l-112 -525h-172l112 525h172z"/>
<glyph glyph-name="iacute" horiz-adv-x="257" unicode="í" d="M367 756l26 -111l-241 -71l-15 62zM327 525l-112 -525h-172l112 525h172z"/>
<glyph glyph-name="icircumflex" horiz-adv-x="257" unicode="î" d="M288 756l160 -109l-38 -57l-144 62l-166 -62l-14 57zM327 525l-112 -525h-172l112 525h172z"/>
<glyph glyph-name="idieresis" horiz-adv-x="257" unicode="ï" d="M439 712l-22 -103h-109l22 103h109zM229 712l-22 -103h-109l22 103h109zM327 525l-112 -525h-172l112 525h172z"/>
<glyph glyph-name="eth" horiz-adv-x="593" unicode="ð" d="M330 714l143 42q30 -20 61 -53l122 36l48 -64l-120 -36q52 -76 52 -204q0 -71 -18 -157q-19 -91 -40 -143t-58.5 -85.5t-88.5 -44.5t-136 -11q-124 0 -173 30.5t-49 109.5q0 49 17 128q13 61 28 103t42 82t70 60t102 20t85 -10t50 -39q-5 68 -35 116l-121 -36l-53 63 l128 38q-12 14 -56 55zM384 399q-61 0 -82.5 -25t-39.5 -112q-13 -60 -13 -84q0 -31 17 -41.5t60 -10.5q59 0 78.5 24t38.5 112q13 63 13 87q0 29 -15.5 39.5t-56.5 10.5z"/>
<glyph glyph-name="ntilde" horiz-adv-x="619" unicode="ñ" d="M601 733l73 -41q-71 -99 -144 -99q-44 0 -92 34q-3 2 -11 8t-11 8.5t-10 7t-11 6t-10 3t-11 1.5q-35 0 -69 -45l-73 44q76 96 151 96q39 0 85 -34q2 -1 8 -5.5l8 -6t7.5 -5.5t8 -5t7.5 -4t8 -4l7.5 -2.5t8.5 -2t8 -0.5q29 0 62 46zM169 525h172l-21 -98h7q32 61 75 83 q39 21 104 21q140 0 140 -112q0 -19 -7 -56l-77 -363h-172l69 323q3 17 3 30q0 24 -13 35t-45 11q-53 0 -77.5 -27.5t-36.5 -82.5l-61 -289h-172z"/>
<glyph glyph-name="ograve" horiz-adv-x="593" unicode="ò" d="M381 756l178 -120l-41 -62l-211 71zM384 399q-61 0 -82.5 -25t-39.5 -112q-13 -60 -13 -84q0 -31 17 -41.5t60 -10.5q59 0 78.5 24t38.5 112q13 63 13 87q0 29 -15.5 39.5t-56.5 10.5zM409 531q127 0 176 -27.5t49 -105.5q0 -47 -19 -136q-24 -112 -56.5 -167t-92 -78 t-171.5 -23q-124 0 -173 30.5t-49 109.5q0 49 17 128q23 112 55.5 167t92 78.5t171.5 23.5z"/>
<glyph glyph-name="oacute" horiz-adv-x="593" unicode="ó" d="M535 756l26 -111l-241 -71l-15 62zM384 399q-61 0 -82.5 -25t-39.5 -112q-13 -60 -13 -84q0 -31 17 -41.5t60 -10.5q59 0 78.5 24t38.5 112q13 63 13 87q0 29 -15.5 39.5t-56.5 10.5zM409 531q127 0 176 -27.5t49 -105.5q0 -47 -19 -136q-24 -112 -56.5 -167t-92 -78 t-171.5 -23q-124 0 -173 30.5t-49 109.5q0 49 17 128q23 112 55.5 167t92 78.5t171.5 23.5z"/>
<glyph glyph-name="ocircumflex" horiz-adv-x="593" unicode="ô" d="M456 756l160 -109l-38 -57l-144 62l-166 -62l-14 57zM384 399q-61 0 -82.5 -25t-39.5 -112q-13 -60 -13 -84q0 -31 17 -41.5t60 -10.5q59 0 78.5 24t38.5 112q13 63 13 87q0 29 -15.5 39.5t-56.5 10.5zM409 531q127 0 176 -27.5t49 -105.5q0 -47 -19 -136 q-24 -112 -56.5 -167t-92 -78t-171.5 -23q-124 0 -173 30.5t-49 109.5q0 49 17 128q23 112 55.5 167t92 78.5t171.5 23.5z"/>
<glyph glyph-name="otilde" horiz-adv-x="593" unicode="õ" d="M588 733l73 -41q-71 -99 -144 -99q-44 0 -92 34q-3 2 -11 8t-11 8.5t-10 7t-11 6t-10 3t-11 1.5q-35 0 -69 -45l-73 44q76 96 151 96q39 0 85 -34q2 -1 8 -5.5l8 -6t7.5 -5.5t8 -5t7.5 -4t8 -4l7.5 -2.5t8.5 -2t8 -0.5q29 0 62 46zM384 399q-61 0 -82.5 -25t-39.5 -112 q-13 -60 -13 -84q0 -31 17 -41.5t60 -10.5q59 0 78.5 24t38.5 112q13 63 13 87q0 29 -15.5 39.5t-56.5 10.5zM409 531q127 0 176 -27.5t49 -105.5q0 -47 -19 -136q-24 -112 -56.5 -167t-92 -78t-171.5 -23q-124 0 -173 30.5t-49 109.5q0 49 17 128q23 112 55.5 167t92 78.5 t171.5 23.5z"/>
<glyph glyph-name="odieresis" horiz-adv-x="593" unicode="ö" d="M607 712l-22 -103h-109l22 103h109zM397 712l-22 -103h-109l22 103h109zM384 399q-61 0 -82.5 -25t-39.5 -112q-13 -60 -13 -84q0 -31 17 -41.5t60 -10.5q59 0 78.5 24t38.5 112q13 63 13 87q0 29 -15.5 39.5t-56.5 10.5zM409 531q127 0 176 -27.5t49 -105.5 q0 -47 -19 -136q-24 -112 -56.5 -167t-92 -78t-171.5 -23q-124 0 -173 30.5t-49 109.5q0 49 17 128q23 112 55.5 167t92 78.5t171.5 23.5z"/>
<glyph glyph-name="divide" horiz-adv-x="600" unicode="÷" d="M444 410h-115l25 115h115zM363 28h-115l24 115h115zM97 219l24 115h500l-24 -115h-500z"/>
<glyph glyph-name="oslash" horiz-adv-x="615" unicode="ø" d="M-2 0l18 83l66 41q2 62 25 166q16 77 38.5 123t61 73t87 36t126.5 9q55 0 85.5 -2t70 -17.5t54.5 -45.5l86 55l-18 -85l-51 -32v-11q0 -29 -15 -102q-16 -76 -30.5 -121t-37 -83t-56 -56t-81.5 -27.5t-121 -9.5q-54 0 -83.5 2t-68.5 18t-56 48zM268 240l198 122 q0 13 -7 21t-20.5 11.5t-22.5 4t-24 0.5q-50 0 -73.5 -15.5t-30.5 -49.5zM459 285l-199 -124q8 -35 74 -35q57 0 79 23t36 89z"/>
<glyph glyph-name="ugrave" horiz-adv-x="615" unicode="ù" d="M392 756l178 -120l-41 -62l-211 71zM555 0h-167l27 101h-8q-54 -107 -179 -107q-148 0 -148 119q0 23 6 53l77 359h172l-67 -313q-6 -30 -6 -42q0 -44 51 -44q38 0 71.5 20t41.5 56l69 323h172z"/>
<glyph glyph-name="uacute" horiz-adv-x="615" unicode="ú" d="M546 756l26 -111l-241 -71l-15 62zM555 0h-167l27 101h-8q-54 -107 -179 -107q-148 0 -148 119q0 23 6 53l77 359h172l-67 -313q-6 -30 -6 -42q0 -44 51 -44q38 0 71.5 20t41.5 56l69 323h172z"/>
<glyph glyph-name="ucircumflex" horiz-adv-x="615" unicode="û" d="M467 756l160 -109l-38 -57l-144 62l-166 -62l-14 57zM555 0h-167l27 101h-8q-54 -107 -179 -107q-148 0 -148 119q0 23 6 53l77 359h172l-67 -313q-6 -30 -6 -42q0 -44 51 -44q38 0 71.5 20t41.5 56l69 323h172z"/>
<glyph glyph-name="udieresis" horiz-adv-x="615" unicode="ü" d="M618 712l-22 -103h-109l22 103h109zM408 712l-22 -103h-109l22 103h109zM555 0h-167l27 101h-8q-54 -107 -179 -107q-148 0 -148 119q0 23 6 53l77 359h172l-67 -313q-6 -30 -6 -42q0 -44 51 -44q38 0 71.5 20t41.5 56l69 323h172z"/>
<glyph glyph-name="yacute" horiz-adv-x="533" unicode="ý" d="M505 756l26 -111l-241 -71l-15 62zM652 525l-254 -571q-44 -105 -101 -146t-165 -41q-9 0 -18.5 0.5t-21 1.5t-18.5 1l25 119q20 -2 30 -2q49 0 74.5 30t39.5 83h-94l-44 525h180l13 -427h2l176 427h176z"/>
<glyph glyph-name="thorn" horiz-adv-x="618" unicode="þ" d="M394 399q-54 0 -76 -26.5t-39 -110.5q-11 -49 -11 -77q0 -30 15.5 -44.5t52.5 -14.5q56 0 80.5 25t43.5 111q12 60 12 83q0 30 -17 42t-61 12zM382 750l-65 -306h6q23 48 68 69q36 18 99 18q165 0 165 -131q0 -30 -7 -62l-26 -120q-26 -121 -82 -172.5t-164 -51.5 q-54 0 -87 17.5t-41 67.5h-8l-65 -306h-172l207 977h172z"/>
<glyph glyph-name="OE" horiz-adv-x="1101" unicode="Œ" d="M597 312l31 145q8 37 8 58q0 47 -31.5 62t-107.5 15q-80 0 -111.5 -27.5t-48.5 -107.5l-31 -145q-11 -53 -11 -83q0 -43 24 -57t86 -14q55 0 88.5 7.5t54 28.5t30 46.5t19.5 71.5zM535 0l25 83h-7q-40 -50 -86 -69t-110 -20q-143 0 -206.5 38.5t-63.5 139.5q0 45 14 115 l30 141q18 87 41.5 143.5t63.5 100.5t101 64t149 20q36 0 62 -3t56 -12t48 -29.5t23 -51.5h7l12 90h526l-34 -164h-340l-30 -139h318l-30 -139h-318l-30 -144h347l-35 -164h-533z"/>
<glyph glyph-name="oe" horiz-adv-x="920" unicode="œ" d="M391 531q31 0 52 -1.5t48 -8t44 -21.5t23 -39h4q20 32 56 49t60.5 19t64.5 2q117 0 166 -31.5t49 -114.5q0 -45 -16 -123l-6 -29h-341q-9 -42 -9 -66q0 -29 15 -41t53 -12q46 0 69 11.5t31 49.5h169q-24 -110 -103 -150q-62 -31 -191 -31q-25 0 -39.5 0.5t-37.5 4.5 t-36 12t-24 23t-13 37h-6q-38 -50 -77.5 -63.5t-118.5 -13.5q-115 0 -161.5 30t-46.5 104q0 48 19 134q17 81 35 127.5t52 81t84.5 47.5t131.5 13zM429 262q15 72 15 93q0 26 -15 35t-55 9q-58 0 -76.5 -23.5t-37.5 -113.5q-13 -63 -13 -86q0 -31 15.5 -40.5t53.5 -9.5 q56 0 75.5 25.5t37.5 110.5zM615 328h169q5 27 5 41q0 32 -17 44.5t-54 12.5q-45 0 -68 -22.5t-35 -75.5z"/>
<glyph glyph-name="Scaron" horiz-adv-x="716" unicode="Š" d="M529 815l-156 109l40 57l138 -62l172 62l12 -57zM418 462l82 -6q139 -10 190.5 -35t51.5 -95q0 -33 -11 -86q-19 -93 -42 -130q-59 -96 -242 -112q-43 -4 -93 -4q-43 0 -67 0.5t-58 3.5t-52.5 9t-40.5 17t-33 27t-18.5 40t-7.5 56q0 40 12 97h192q-5 -23 -5 -36 q0 -32 24 -41t89 -9q75 0 102.5 12t36.5 57q5 25 5 34q0 21 -17.5 26.5t-77.5 9.5l-43 3q-132 9 -170 21q-73 22 -84 90q-2 14 -2 31q0 33 11 85q11 53 28.5 91.5t44 63.5t53.5 40t69 22.5t78 9.5t93 2q45 0 70 -1t61.5 -4.5t56.5 -12.5t40.5 -24t29.5 -39.5t9 -58.5 q0 -35 -8 -70l-7 -31h-192q4 17 4 34q0 13 -4.5 21t-10.5 12.5t-21 6.5t-26.5 2.5t-36.5 0.5q-52 0 -80 -8t-37 -20t-14 -36q-3 -15 -3 -25q0 -25 15.5 -31.5t55.5 -9.5z"/>
<glyph glyph-name="scaron" horiz-adv-x="578" unicode="š" d="M412 590l-155 109l39 57l139 -62l171 62l13 -57zM601 376h-162v6q0 24 -19 33q-12 5 -42 5q-44 0 -64.5 -5t-25.5 -11.5t-9 -25.5q-2 -10 -2 -15q0 -15 17 -22.5t66 -8.5q52 -1 82.5 -3t62.5 -8t48 -17t26 -29.5t10 -46.5q0 -26 -7 -57q-12 -56 -39 -92.5t-69.5 -54 t-85 -24t-100.5 -6.5h-14q-36 0 -56 0.5t-49 4t-45.5 10.5t-33 19.5t-23.5 32.5t-7 47t7 56h172q-2 -14 -2 -19q0 -24 17 -33q15 -7 57 -7q59 0 76 7.5t24 38.5q2 7 2 19q0 23 -17.5 28t-63.5 5q-130 0 -180 24.5t-50 80.5q0 22 6 51q8 36 21 63t27 45t37.5 30.5t42.5 19 t51 10t54 4t61 0.5q45 0 71.5 -2t63 -10.5t55 -30t18.5 -55.5q0 -16 -4 -32z"/>
<glyph glyph-name="Ydieresis" horiz-adv-x="708" unicode="Ÿ" d="M713 937l-22 -103h-109l22 103h109zM503 937l-22 -103h-109l22 103h109zM883 750l-377 -487l-56 -263h-200l56 263l-163 487h229l73 -289h7l199 289h232z"/>
<glyph glyph-name="circumflex" horiz-adv-x="512" unicode="ˆ" d="M415 756l160 -109l-38 -57l-144 62l-166 -62l-14 57z"/>
<glyph glyph-name="tilde" horiz-adv-x="585" unicode="˜" d="M584 733l73 -41q-71 -99 -144 -99q-44 0 -92 34q-3 2 -11 8t-11 8.5t-10 7t-11 6t-10 3t-11 1.5q-35 0 -69 -45l-73 44q76 96 151 96q39 0 85 -34q2 -1 8 -5.5l8 -6t7.5 -5.5t8 -5t7.5 -4t8 -4l7.5 -2.5t8.5 -2t8 -0.5q29 0 62 46z"/>
<glyph glyph-name="uni03BC" horiz-adv-x="615" unicode="μ" d="M558 0h-167l27 101h-8q-54 -107 -185 -107l-47 -221h-172l160 752h172l-67 -313q-6 -30 -6 -42q0 -44 51 -44q38 0 71.5 20t41.5 56l69 323h172z"/>
<glyph glyph-name="pi" horiz-adv-x="764" unicode="π" d="M823 422h-85l-52 -245q-23 -103 -23 -169v-8h-168q-5 10 -5 32q0 48 19 132l55 258h-161q-24 -102 -73 -232t-90 -190h-169q45 83 94 209t68 213q-87 0 -126 -11l4 102q54 38 218 38h536z"/>
<glyph glyph-name="endash" horiz-adv-x="500" unicode="–" d="M76 358h500l-35 -164h-500z"/>
<glyph glyph-name="emdash" horiz-adv-x="1000" unicode="—" d="M76 358h1000l-35 -164h-1000z"/>
<glyph glyph-name="quoteleft" horiz-adv-x="264" unicode="‘" d="M303 446h-162l36 168q14 78 56.5 110t140.5 32h5l-16 -75q-42 -1 -60 -15t-26 -52h62z"/>
<glyph glyph-name="quotesinglbase" horiz-adv-x="264" unicode="‚" d="M92 168h162l-36 -168q-15 -78 -57 -110t-140 -32h-5l16 75q42 1 60 15t26 52h-62z"/>
<glyph glyph-name="quotedblleft" horiz-adv-x="489" unicode="“" d="M303 446h-162l36 168q14 78 56.5 110t140.5 32h5l-16 -75q-42 -1 -60 -15t-26 -52h62zM528 446h-162l36 168q14 78 56.5 110t140.5 32h5l-16 -75q-42 -1 -60 -15t-26 -52h62z"/>
<glyph glyph-name="quotedblright" horiz-adv-x="489" unicode="”" d="M440 750h162l-35 -168q-15 -78 -57.5 -110t-139.5 -32h-5l15 75q43 1 61 15t26 52h-62zM215 750h162l-35 -168q-15 -78 -57.5 -110t-139.5 -32h-5l15 75q43 1 61 15t26 52h-62z"/>
<glyph glyph-name="dagger" d="M605 750l-46 -219h182l-28 -132h-182l-133 -626h-172l133 626h-182l28 132h182l46 219h172z" unicode="†"/>
<glyph glyph-name="daggerdbl" d="M605 750l-47 -225h182l-28 -132h-182l-56 -261h182l-28 -132h-182l-48 -227h-172l48 227h-182l28 132h182l56 261h-182l28 132h182l47 225h172z" unicode="‡"/>
<glyph glyph-name="ellipsis" horiz-adv-x="1000" unicode="…" d="M952 174l-37 -174h-162l37 174h162zM618 174l-37 -174h-162l37 174h162zM284 174l-37 -174h-162l37 174h162z"/>
<glyph glyph-name="perthousand" horiz-adv-x="1290" unicode="‰" d="M901 750l-602 -750h-120l602 750h120zM360 526l17 83q5 23 5 33q0 18 -12 22.5t-46 4.5q-39 0 -51 -9t-21 -51l-17 -83q-6 -26 -6 -39q0 -17 10 -21t41 -4q41 0 55.5 10t24.5 54zM480 621l-23 -110q-20 -86 -60.5 -111t-133.5 -25q-77 0 -107.5 15t-30.5 65q0 22 6 55 l24 110q20 86 58 111t130 25q79 0 111 -15.5t32 -65.5q0 -23 -6 -54zM815 145l17 83q5 23 5 33q0 18 -12 22.5t-46 4.5q-39 0 -51 -9t-21 -51l-17 -83q-6 -25 -6 -39q0 -17 10 -21t41 -4q41 0 55.5 10t24.5 54zM935 240l-23 -110q-20 -86 -60.5 -111t-133.5 -25 q-78 0 -108 15t-30 65q0 22 6 55l24 110q20 86 58 111t130 25q79 0 111 -15.5t32 -65.5q0 -22 -6 -54zM1198 145l17 83q5 23 5 33q0 18 -12 22.5t-46 4.5q-39 0 -51 -9t-21 -51l-17 -83q-6 -25 -6 -39q0 -17 10 -21t41 -4q41 0 55.5 10t24.5 54zM1318 240l-23 -110 q-20 -86 -60.5 -111t-133.5 -25q-77 0 -107.5 15t-30.5 65q0 22 6 55l24 110q20 86 58 111t130 25q79 0 111 -15.5t32 -65.5q0 -22 -6 -54z"/>
<glyph glyph-name="guilsinglleft" horiz-adv-x="331" unicode="‹" d="M281 515l100 -61l-134 -182l60 -169l-121 -66l-84 235z"/>
<glyph glyph-name="guilsinglright" horiz-adv-x="330" unicode="›" d="M160 37l-100 61l135 182l-61 169l121 66l85 -235z"/>
<glyph glyph-name="fraction" horiz-adv-x="218" unicode="⁄" d="M549 750l-602 -750h-120l602 750h120z"/>
<glyph glyph-name="Euro" d="M858 685l-98 -158q-18 29 -49.5 44t-56 17.5t-63.5 2.5q-81 0 -121 -20.5t-58 -67.5h332l-63 -102h-294l-8 -41h279l-64 -102h-234q0 -3 -0.5 -8.5t-0.5 -7.5q0 -45 30.5 -64.5t109.5 -19.5q119 0 205 69l-39 -184q-38 -22 -95 -35.5t-104 -13.5q-44 0 -72.5 1t-64 5 t-58 11t-46.5 20t-37 31.5t-21.5 46t-8.5 63.5t9 86h-105l64 102h63l8 41h-107l64 102h66q17 64 47 110.5t66 73.5t86 43t98 21t111 5h12q157 0 218 -71z" unicode="€"/>
<glyph glyph-name="trademark" horiz-adv-x="860" unicode="™" d="M503 750l-17 -83h-123l-68 -321h-102l68 321h-123l17 83h348zM1023 750l-85 -404h-93l68 323h-2l-185 -323h-52l-49 323h-2l-68 -323h-93l85 404h147l41 -239l141 239h147z"/>
<glyph glyph-name="partialdiff" horiz-adv-x="723" unicode="∂" d="M351 124h2q61 0 117 55t81 126q-3 33 -33.5 65.5t-83.5 32.5q-60 0 -110 -44t-64 -108q-3 -16 -3 -30q0 -43 25.5 -70t68.5 -27zM261 658l-27 109q112 67 255 67q129 0 207 -79.5t78 -217.5q0 -53 -12 -111q-41 -190 -167 -309.5t-289 -119.5q-110 0 -164.5 62t-54.5 145 q0 23 5 48q25 118 117.5 196t211.5 78q71 0 114 -32.5t59 -66.5h1l6 29q7 32 7 68q0 81 -43.5 131.5t-123.5 50.5q-92 0 -180 -48z"/>
<glyph glyph-name="product" horiz-adv-x="1049" unicode="∏" d="M1028 590h-129v-691h-171v691h-249v-691h-172v691h-128v143h849v-143z"/>
<glyph glyph-name="summation" horiz-adv-x="861" unicode="∑" d="M843 -101h-663v95l290 318l-275 311v110h623v-141h-381v-4l232 -257l-255 -284v-4h429v-144z"/>
<glyph glyph-name="minus" horiz-adv-x="600" unicode="−" d="M97 219l24 115h500l-24 -115h-500z"/>
<glyph glyph-name="radical" horiz-adv-x="901" unicode="√" d="M927 876l-289 -1032h-136l-191 457l-89 -36l-29 83l219 90l131 -345q20 -60 28 -87h2q10 51 21 93l209 777h124z"/>
<glyph glyph-name="infinity" horiz-adv-x="993" unicode="∞" d="M750 409h-1q-16 0 -32 -6t-27 -12t-27 -21t-22 -22t-22.5 -25.5t-18.5 -21.5q50 -63 83 -86.5t72 -23.5q43 0 69 33t26 73q0 49 -27.5 80.5t-72.5 31.5zM351 191h2q28 0 57.5 18t47 36t43.5 49q-23 32 -33.5 45.5t-31 33.5t-41.5 28t-47 8q-44 0 -72 -31t-28 -81 q0 -43 29.5 -74.5t73.5 -31.5zM940 304v-1q0 -90 -56 -145t-131 -55q-110 0 -204 126q-50 -62 -97.5 -94t-110.5 -32q-74 0 -128.5 54.5t-54.5 139.5q0 87 55 142.5t138 55.5q61 0 109.5 -31t95.5 -92q1 2 13.5 15.5t15.5 17t15 16t17.5 17t18 15t20.5 14.5t21 11t24.5 9.5 t26 5t29.5 2.5h2q78 -1 129.5 -53.5t51.5 -137.5z"/>
<glyph glyph-name="approxequal" horiz-adv-x="775" unicode="≈" d="M672 281l60 -61q-74 -113 -171 -113q-35 0 -63.5 10.5t-71.5 33.5q-61 36 -101 36q-37 0 -64 -20t-57 -59l-60 61q29 48 80 80.5t105 32.5q55 0 124 -39q6 -3 24 -13.5t26.5 -14.5t23.5 -8.5t30 -4.5q33 0 58.5 18.5t56.5 60.5zM672 498l60 -61q-74 -114 -170 -114 q-35 0 -63.5 10t-72.5 35q-2 1 -10.5 5.5t-11 6t-10 5.5t-11 5t-10.5 4t-12 4t-11.5 2.5t-12.5 2t-13 0.5q-35 0 -62.5 -20.5t-57.5 -58.5l-60 61q29 48 79.5 80.5t104.5 32.5q58 0 126 -39q59 -34 80 -39q11 -2 24 -2q58 0 114 80z"/>
<glyph glyph-name="notequal" horiz-adv-x="795" unicode="≠" d="M622 557l-43 -94h160v-93h-201l-66 -144h267v-93h-308l-60 -132l-76 35l45 97h-157v93h198l66 144h-264v93h304l58 129z"/>
<glyph glyph-name="lessequal" horiz-adv-x="819" unicode="≤" d="M764 -12h-556v95h556v-95zM762 123l-551 244v100l550 244v-105l-449 -188v-2l450 -189v-104z"/>
<glyph glyph-name="greaterequal" horiz-adv-x="820" unicode="≥" d="M759 -12h-550v95h550v-95zM212 711l551 -245v-100l-550 -243v104l449 189v2l-450 188v105z"/>
<glyph glyph-name="lozenge" horiz-adv-x="901" unicode="◊" d="M695 362l-143 253q-16 29 -22 47h-2q-8 -21 -22 -47l-141 -247l145 -254q12 -24 20 -46h4q12 32 20 45zM846 365l-250 -418h-133l-247 418l249 419h133z"/>
</font>
</defs>
</svg>
